<svg xmlns="http://www.w3.org/2000/svg" width="2703" height="1548" xmlns:v="https://vecta.io/nano"><path d="M719.7-.3h4 10.8 9H765h22 19 11.3 10.7 5.7c15.5.1 28.7 4.4 40 15 9.2 10 13 22.3 15.6 35.4l.7 3.2 2 10.2 1.5 7 6.6 34 .5 3 2.5 13.8c2.6 14.7 5.7 26 16.8 36.6 7.4 5 16.5 7 25 9.5a641 641 0 0 1 129 53c15 8 28.6 12.8 45.6 8.5 8.7-2.8 16.3-7.3 24-12l17.6-10.2 19.8-11.5c48.7-29 48.7-29 77.2-23.5a61 61 0 0 1 8.4 3.3l2.5 1.2c14 7.6 25.2 21.3 36.3 32.4l2.4 2.4 12.4 12.4 12.7 12.6 10 9.8 4.7 4.7c15 14.7 29 29.8 29.4 52-.1 24-15 44.8-26.4 65l-14 25.6-9.5 17a69 69 0 0 0-7.7 48.3c3 10.5 8.5 19.5 14 28.8a452 452 0 0 1 9.8 17.7l1.4 2.6a29 29 0 0 1 2.5 22.1c-2.2 5.4-6.3 8.8-11.3 11.6-2.8 1-5.4 1-8.3 1h-2.6-3-3-10-7.3-19.7-12.3-34.2-2.2-2.2-4.4-2.2-35.7-36.6-20.6-19.3c-2.4 0-4.7 0-7 0a1355 1355 0 0 1-9.7 0h-2.8c-7.3-.1-14-1-19.6-6l-2.5-3-1.4-1.6-10.7-13-22.6-24.2-2-2L1020 480l-2-1.7C943 414.7 847.6 382 734 385.8c-84.5 7-166.6 41-229 98.6l-6.6 6L486 502l-2 2a241 241 0 0 0-12.9 14l-1.6 2a393 393 0 0 0-65.2 107.3l-1.5 3.7-3.6 9h2.4l143.4.3H562h3.5l55.5.1 57 .1 35 .1 24 .1h14 12.7 4.6c16.8 0 32.2 2.2 45 14.3a49 49 0 0 1 13.9 34.4v2.2 7.4 5.3V722v6 28.5l.1 32.8v25.4 15V844v5.2c.1 16.7-3 30.6-14.7 43.4-12.4 11.6-26.5 13.7-42.8 13.6h-4.8H752c-4.7 0-9.5 0-14.2 0h-24.6l-35.6.1-57.7.1h-56-3.5H543l-144 .2 4.8 12 1.4 3.4 9.4 22 1.5 3c9 18.4 19.8 36 32 52.6l2.2 3 30.4 36.5 6 6.8 10.4 10a80 80 0 0 1 5.2 5c4.6 4.6 9.6 8.6 14.7 12.6l3.3 2.7c55.4 45.7 125.5 74.8 196.7 83.3l2.2.3c15 1.7 29.8 2 44.8 2h3.5a337 337 0 0 0 52.5-3.3l3.3-.5c37.8-6 74-17 108.7-33.5l2.7-1.3a361 361 0 0 0 85.3-56.7l2.6-2.3 7.4-6.7 1.7-1.5c9.2-8.3 9.2-8.3 17.6-17.4a169 169 0 0 1 5.6-6.2c5-5.5 9.8-11 14.2-17.2 3.5-4.7 7.3-7.7 13-9.3 4-.6 8-.5 12-.5h2.7 9 6.4 13.3 18.6 70.5l35.2.1 31 .1h16.4 15.3 5.6c17.4-.1 17.4-.1 24 5.7 4.3 4.4 5.8 8.6 6.4 14.8-.2 8.2-5.2 16.3-8.8 23.4l-1.3 2.6a408 408 0 0 1-12.8 23.1 58 58 0 0 0-8.5 42.9c2.2 8 6 15 10 22.3l1.3 2.5 17.5 31.2c34 58 34 58 29.6 83.7-3.2 11-10 20.5-18 28.8l-1.6 1.7-18 18.5-3.7 3.7-7.6 7.6-9.7 9.7-7.5 7.5-3.6 3.6-17.3 16.4-5.7 5.2c-12 10.7-25.5 17.2-41.8 16.4-22.4-1.7-43.3-15.7-62.2-26.7l-8.2-4.7-25.7-15.4c-16.5-10.5-32.4-16.3-52.2-12.6-7.2 2-13.6 5.2-20.2 8.7l-15 7.8-6.5 3.4-3 1.6-5 2.7c-27.7 14.5-57 25-87.2 33-17.8 4.8-34.3 10.3-44.8 26.5-6 11-8 23-10 35a1104 1104 0 0 1-9.4 50.6l-1.3 6c-7.3 35.3-7.3 35.3-22 46.4-11.6 7.5-24 8.2-37.3 8.2h-4-10.7-6.7-21l-24 .1h-18.7-11c-44.4.2-44.4.2-59.6-14-9-9.7-12.4-22.3-14.8-35l-.8-3.8-2-10.3-2.2-11.3-1-4.7-2-9.6-.5-2.4-1-5-2.4-12.4-2.4-12.3-1-4.6c-2.7-14-6-28-18.4-36.7-7-4-14-6.2-22-8.2l-11-3-2.2-.6c-41.4-11-80.5-29.5-118.4-49.3-14.6-7.6-28.7-11.3-45-6.7-6.7 2.4-13 5.8-19.2 9l-2.7 1.4c-10 5.3-20 10.8-29.8 16.4-61 34.8-61 34.8-87 28.3-17.2-5.5-29.5-18.8-41.8-31.3l-4-4L233 1328l-17-17-6-6-16.6-15.7a57 57 0 0 1-20.7-36.5c-1-16.6 3.2-29.8 11-44.4l4.2-8.2 16.5-30.7 14-25.3 1.8-3.2c6.4-11.8 9.8-22.2 10-35.5l.1-2.8c.1-13-5-23.3-11.3-34.3l-4-7-1-1.8c-17.6-31.2-31.7-65-41.6-99.3l-.7-2.3c-1-3.7-2-7.3-3-11-4-14.4-9.3-28-22.3-36.6-5.5-3-11-4.8-17-6l-2.3-.5-31.2-6.3-49-10.3-3.3-.8c-15.2-3.8-28-10-36.8-23.5-8.6-15.5-7-34-7-51v-11V782v-21.4-18.5-11c-.1-44-.1-44 13.3-59 9.6-8.7 20.7-12.5 33.2-15l3.5-.8 41.4-7.6 43.5-8 2-.4c10-2.3 17.8-7.4 23.7-15.7 5.2-8.6 7.3-18 10-27.7 10.3-39.2 26.4-77 45.8-112.4l1-1.8 4.5-8c8.7-15.5 12-32.2 8-49.6-7-23-21.7-44.2-33.7-64.7l-1.8-3-6.3-10.7c-10.6-17.8-18-36-14-57.2 6-18.8 21-32.4 34.5-46l4.7-4.7 9.8-9.8 12.5-12.5 9.7-9.7 4.6-4.6c15.5-15.6 31.4-31.5 54.6-32.4 17.8.3 33.3 9.4 48.8 17.4l2 1 33.2 18.2 15.4 8.7 5 3c17 9.5 34.2 14.6 53.4 9.8 10-3.3 19-8.7 28-13.7 36-19.5 73.4-33.4 112.3-45.3l2.2-.7 4-1.2c13-4 23-10 30-21.8 4.7-10 6.7-20 8.5-31l10.7-53.7.7-3.2c3.2-14.4 6.3-27.8 14.5-40.3l1.8-2.8C687 1.7 703-.3 719.7-.3z" fill="#f07e39"/><path d="M1318.7 577.8h2.6 8.6 6 12.8 16l61 .6h2.3c66.7 1.8 130 11.4 178 61.6a177 177 0 0 1 41.8 86.4l.5 2.4a241 241 0 0 1 3.6 44.1v2.4c-.2 48.6-13.8 96.2-47.3 132.5l-1.4 1.5A173 173 0 0 1 1524 957l-2.3.7c-21.2 6-43.3 8-65.2 9.4l-2 .1-45 1h-6.3-22.2l-20.6.1-17.8.1H1332h-11.7-3.5c-8.7-.1-8.7-.1-12.4-3-3.4-3.8-3.4-5.6-3.4-10.7v-4-4.4-4.6V929 915v-33-15.7-52V801v-3.4-54.4-55.8V656v-26.7-13.6-12.5-4.5-6-3.4c.6-4 2-6 4.5-9 4.2-2.6 9-2.3 13.7-2.2zM1409 669c-2.5 3.8-2.3 6.7-2.3 11v2.5 8.4 6 16.3 13.6 32 33V820v17 16 6 8 2.4c0 3.5.2 5.4 2.4 8.3 10.6 7.8 35 2.7 47.6 1 27-4 53-14 69.8-36.5 13.2-20.4 17-43.3 17-67.2v-2.3a141 141 0 0 0-3.3-34.4l-.5-2c-3.6-13.7-9.2-26-18.5-37l-2-2.5c-15.4-18.5-43.2-26.6-66.3-28.8-22.8-3.7-22.8-3.7-43.8 1.3zm990.8-97.2h2.3c39 .1 77.4 10.2 106 38 21 21.3 29.8 49.8 30.2 79a14 14 0 0 1-3.4 8.2c-3 1.5-5.6 1.2-8.8 1.2h-2l-7 .1h-2.4l-12.7.1-13 .1h-10-4.8-6.7-4c-4.3-.8-5.7-2.3-8.4-5.6-.7-3.2-.7-3.2-1-6.6-.8-7.3-3-12.3-7-18.4l-1.7-2.7c-13.3-13.3-29.3-15.5-47.3-15.5a78 78 0 0 0-24 3.3l-2.7.8a33 33 0 0 0-19.3 15c-3.5 8-4 16-1 24.2 1.6 3.2 1.6 3.2 4 6l1.2 1.6c17.6 20.5 56.7 25.7 81.6 32.7l46 16.6 2.7 1.3A116 116 0 0 1 2507 764l1.6 1.2a98 98 0 0 1 37 65l.7 20.7v2.3a158 158 0 0 1-3.3 35.6l-.5 2.3c-4.8 21.3-14.6 38-29.5 53.7l-1.6 1.8c-21 23-58.5 32.4-88.4 34.2l-18 .3h-2.6l-41.4-3-2.5-.4A138 138 0 0 1 2293 949l-2.3-2a109 109 0 0 1-35.7-72l-.3-3.2a261 261 0 0 1-.9-16.8l-.1-3c.4-3.3 1.3-5.2 3.3-8 3-1.5 5.6-1.2 9-1.2h2.2 7 2.5 13l13.3-.1h10.2 5 7 4c3.8.6 5 1.4 7.3 4.5.6 2.3.6 2.3.8 4.7l.3 2.8.3 3c1.3 11.7 4.3 23 13.5 31 20.5 14.3 48.3 15.4 72.2 11.2 11.4-2.7 23.3-7.5 30-17.7 4.3-8 4.4-18 2.3-26.8-5-12.2-15.8-19-27.3-24L2384 816l-2.8-.8-14-4c-37.3-11-74.2-27.5-93.8-63-15.5-29.2-16-67-6.7-98a105 105 0 0 1 52.4-61.3c25.4-12.8 53-16.8 81.2-16.8zm-684 6.2h2.7 9 6.5 17.6 11 34.4 39.7 30.7 18.3 17.3 6.3 8.6 2.5c5.7 0 10 1 14.4 5 1.6 3.2 1.5 5.8 1.6 9.3v2 7 4.8 10.2l.1 13v10 4.8 6.7 4c-.8 4.6-2.3 6.2-5.6 9.5-3 1-4.8 1-7.8 1h-3-3.3-3.5-7.5l-12 .1-33.8.2-18.7.1h-10l-11 .1h-3.3-3-2.6c-2.8.3-5 1-7.5 2.3-1.3 3-1 6-1.2 9v3 3.3 3.4 7.2l-.1 11v7l-.1 3.3c0 6 0 6 2.4 11.6 3 2.6 4.6 3 8.6 3h2.8 3 3.3 7 11.2l31.8.1h19.5 7.4 10.4 3c5.7.1 9.5.5 13.8 4.6 2.2 3.8 2.3 7.3 2.3 11.6v2 6.4 4.4 9.3 12 9.2 4.4 6 3.5c-.6 4.7-2.8 8-6.4 11-2.8 1-4.6 1-7.5 1h-2.8-3-3.3-7l-11 .1-31.6.2-19.3.1h-7.4l-10.3.1h-3-2.8-2.5a13 13 0 0 0-6.2 2.3c-2.2 3.2-2.3 4.2-2.3 8v3 3.3 3.4 7 10.8 7 3.3c0 6 0 6 2.4 11.4 3 2.7 4.8 3 9 3h3 3.3 3.5 7.6 12 2 4l28 .1h18.8 10 11 3.3c8.3.1 8.3.1 12 3 3.6 4 3.5 6.2 3.5 11.6v2.2 7.2 2.5 13l.1 13.4v10.3 5 7 4c-.8 4.3-2.3 5.7-5.6 8.4-3.3 1.7-7 1-10.7 1h-2.8-9.2-6.6-18-11.2-33-6-2l-32.4.1h-33.3-18.7-17.6a979 979 0 0 0-6.5 0 839 839 0 0 1-8.8 0h-2.6c-5.3-.1-8.5-.8-12.6-4.5-2-4-2.3-7-2.3-11.4v-4-4.3-4.6V927v-13.7-26.7V865v-3-6.3-59-54-55.3-31V630v-13.5V604v-4.5-6-3.4a14 14 0 0 1 5.4-9.8c4.4-2.7 8.7-2.4 13.7-2.4zm298-.3h2.6 8.4 6 12.3 15.7 12 5.8 8 2.4c5.5 0 9.2.6 13.4 4.2 2.7 3.2 3 5.8 3 9.8v3 3.3 3.5 9.6 10.3 18l.1 26 .1 42v2.5l.1 35.8v2.5 2.5l.1 42v26 17.7 10.2 11 3.3 3 2.6a15 15 0 0 0 2.3 6.3c3 2 5.3 2.3 8.8 2.3h3 3.2 3.4 7.2 11.5l28.5.1 24 .1h7.6 10.6 3.2c6.4.1 11 .6 15.8 5 1.6 3.3 1.6 6.3 1.6 10v2.3 7.6 5.3 11l.1 14v11 5.2 7.3 2.2a11 11 0 0 1-3.1 8.5c-4.4 3.5-7.8 3.2-13.3 3.2h-2.8-9.2-6.6-21.7-7.5-31-8-2-32.4-33.3-18.5-17.6a783 783 0 0 0-6.5 0 671 671 0 0 1-8.8 0h-2.6c-4.2-.1-6.8-.4-10-3-3.6-3.8-3.6-5.5-3.6-10.7v-4-4.4-4.6-12.8-13.8V882v-15.7-52V801v-3.4l-.1-54.4v-55.8V656v-26.7-13.6-12.5-4.5-6-3.4c.6-4 2-6 4.5-9 4.2-2.6 8.8-2.3 13.6-2.3zm-878 .1h2.6 8.6 6 12.6l16-.1h12.4 6 8.3 2.5c5 0 8.3.6 12.4 3.4a16 16 0 0 1 3.4 11.5v4 4.4 4.6 12.8V632v27 22 6.3 3.2V750v54 55.8V891v26.7 13.6 12.5 4.5c.1 12.6.1 12.6-3 16.6-4.4 3.6-7.8 3.3-13.3 3.3h-2.7-9-6.2-13l-16.7.1h-12.8-6.2-8.6-2.6c-4.6 0-7.8-.3-11.5-3.4-2.8-4-3.4-6.6-3.4-11.4v-4-4.3-4.6V928v-13.7-26.8-21.8-3-6.3-59-50.7V688v-6.3-3-21.8V630v-13.5V604v-4.5-6-3.4c.6-4.6 2.8-8 6.4-11 4-1.3 7.5-1.2 11.5-1.2zm1477.2-.1h2.6 8.5 6 12.4 16 12.2 6 8.2 2.4c5.5 0 9.3.6 13.5 4.2 3 3.6 3 6.7 3 11.2v4 4.3 4.6 12.7 13.7 30V681v51.6 3.3 3.3 6.7 3.4 54 55.3 31V916v13.5V942v4.5 6 3.4c-.5 4.6-2 8-5.5 11-4 1.6-7.6 1.6-12 1.6h-2.7-9-6.2-13a1985 1985 0 0 0-16.6.1h-12.8-6a615 615 0 0 1-8.6 0h-2.5c-4.2-.1-6.8-.4-10-3-3.6-3.8-3.6-5.5-3.6-10.7v-4-4.4-4.6-13-13.8V882v-15.7V814v-13.5-3.4-54.6-56V655v-26.8-13.7V602v-4.5-6-3.5c.6-3.7 2-5.4 4.5-8 4.3-2.5 8.8-2.3 13.7-2.3z" fill="#192845"/><path d="M2355.7 1033.6l3.8-.1c10.5-.1 10.5-.1 14.5 3 1.6 1.7 1.6 1.7 3 3.5l1.5 2 4.5 6.3 3.4 4.8 1.8 2.5 8.8 12 23.8 33 2 2.7 3.6 5.3 1.7 2.4 1.5 2a53 53 0 0 0 5.5 6l-.2-2c-1.3-14-1.4-28-1.7-42.2v-9.2l-.3-12-.1-3.6c-.1-9-.1-9 3-12.7 5-4.3 9.6-3.5 16-3.6l3.2-.1c7.7-.1 7.7-.1 11.6 2.2 3 3.7 4 6.4 4.2 11.2v3 3.3 3.5 11.4 8 16.7 19.2 16.5 10 11 3.3c0 5.5-.2 9.6-3.4 14.3-5.4 4.2-12 3.4-18.6 3.4h-3.4-3.3-3c-8.5-1.2-13.4-9.6-18.2-16l-3.6-5-15-19.7-31-42 .3 33.4.2 7 .3 10.7.3 10.5.1 3.2c.1 6.4-.4 10-4.7 15-4 3.2-9 2.5-13.8 2.5h-2.6c-5 0-8.7-.4-13-3.3-2.8-3-3.4-5-3.4-9v-3-3.4-3.6-9.8-8.2-19.3-20-17-10.2-11.4-3.4c.1-7.6.1-7.6 3-11.6 5.7-4 11.5-3.2 18.3-3.3zm-687.7 13l4 3.4 1.8 1.5a64 64 0 0 1 20.3 41.9c.6 22.2-2.8 39.6-18 56.6l-1.7 2a71 71 0 0 1-47.7 21.4c-22 .6-41-4.3-57.6-19.3l-2-1.6a69 69 0 0 1-18.1-29.4l-1.2-3.7c-4.2-19-1-38.8 9-55.3a78 78 0 0 1 47.5-32.3c22.7-4 45.2 1 63.7 15zm-75 29.4a43 43 0 0 0-5 9l-1 2.3a47 47 0 0 0 2 34.7c4.7 8.8 11 14.2 20.3 18a37 37 0 0 0 28.8-3 42 42 0 0 0 17.4-24.4 48 48 0 0 0-6.2-34.5c-5.4-7.5-13-13.3-22.2-15-14.3-1.2-24.4 2.2-34 13zm689-31a71 71 0 0 1 27.8 43.8 74 74 0 0 1-13.5 56.4 80 80 0 0 1-48.2 27.8c-22.5 1.6-43.2-2-60.8-17l-2.2-2-2-2c-13.8-13-20.5-31.4-21.2-50a75 75 0 0 1 23.3-52.4c27.5-24.3 67-24.7 97-4.7zm-73 31c-8 10-9 21.6-8 34a38 38 0 0 0 13.5 23.9 38 38 0 0 0 28.5 7c8.8-1.7 15.3-6.2 21-13a47 47 0 0 0 6.9-36.9 39 39 0 0 0-18-24.3c-16-8.3-32.2-3.6-44 9.2zm-374.5-42.4h3.2 3.3 3.3 3.2 3c3.3.5 5 1.4 7.7 3.4 2.2 3.4 2.3 6.4 2.3 10.4l.1 4v4.2 4.4l.1 11.6.2 18.4v6.4c-.8 21.6-.8 21.6 7.7 40.4 7.3 4 14.4 4.2 22.6 3.4 3-1 5.2-2.3 8-4h2c3.6-8.6 5-16.3 5.2-25.7v-2.2-4.7l.1-7.5.1-21.4.1-13v-5l.1-7v-4c.5-4.5 2-7 5.2-10.2 4.3-2.4 9.2-1.7 14-1.7l3.3-.1c8.8 0 8.8 0 12.6 3 3.7 4 3.5 7.2 3.5 12.5v2.5 8 5.7 12l.1 15v11.7 5.6c.1 18.5-.7 36.4-14 50.5-16.6 15.3-41 13.8-62.2 13a58 58 0 0 1-34-14c-13.6-16-13.3-36-13.3-56v-5.3-11-14-10.8-5.2-7.2-2c0-4.4.8-7 3.4-10.5 3-3 5.2-3.4 9.5-3.4z" fill="#f07e39"/><path d="M2063.6 1042a51 51 0 0 1 17.4 27.1l.7 2.5c1.3 10.2 1.3 10.2-1.5 14-4.6 3.2-9.2 2.7-14.6 2.8h-2.6c-4.8 0-8.2 0-12-3.3-1-1.8-1-1.8-1.6-3.7-1.2-3.7-2.8-7-4.6-10.6-1-1.8-1-1.8-2-4.8-1.7-1-1.7-1-4-2l-2.8-1.6c-7.2-3-17-2.6-24.2.2-7.4 4-10.5 10-13.2 17.7-2 7-2 13.8-2 21v3.3c0 11.3.7 24 9 32.4 7.3 5.8 15 7 24 6a27 27 0 0 0 16-9c1.7-2.7 2.8-5.2 3.7-8.3l.7-2.4.6-2.3c1.5-3 3-3.7 6-5 3-.4 6-.4 9-.4h2.4a21 21 0 0 1 12.7 3.4c3 6 .7 14-1 20-3.8 11.3-11 21-21.5 27-19 8.6-41.4 10-61.2 3a53 53 0 0 1-28.9-27.5c-9.6-24.2-10-55.3.3-79.4a56 56 0 0 1 34.3-29c19.6-5.6 44.2-3.4 60.7 9z" fill="#ef7e50"/><path d="M2512.6 1033.8h2.3 7.6 5.3 11 14.2 11 5.3 7.3 2.2c5 0 5 0 6 1v6.2 3.8 2 6 3.8 3.5c-.1 2.7-.1 2.7-1 3.7h-4.3-2.8-3-3-9.8-6.6-16.3v23h9.3 9 6.2 9 2.8 2.6 2.3c2 .2 2 .2 4 2.2l.3 5.6v3.4 3.5 3.5 3.4 3c-.3 2.5-.3 2.5-2.3 4.5-2 .3-2 .3-4.2.3l-2.6.1h-2.8l-3 .1-9 .2-6.2.1-15.2.3v21h9.8 9.3 6.5 9.3 3 2.7 2.4c2 .1 2 .1 4 1v30c-3 1.5-6 1.2-9 1.2h-2.2-7.3-5-10.6l-13.6.1H2527h-5-7-2a15 15 0 0 1-10.4-3.4c-2.2-3.3-2.3-4.2-2.3-8v-3.2-3.5-3.6-10-10.4-17.4-20-17.3-10.3-11.5-3.5-3.2-2.7c.3-2.6.8-4.2 2.3-6.4 3.7-2.4 6.4-2.3 10.6-2.2zm-1030.2-3h3a71 71 0 0 1 30.7 7.3l2 1c3.7 1.6 3.7 1.6 4.7 4 .3 2.8-.4 4.3-1.5 7l-1.2 2.7-1.3 2.7-1.2 2.8c-3.6 7.8-3.6 7.8-6.5 10.2-3.7-.3-6.6-1.7-9.8-3.4-8-4-14.3-5.4-23.2-3.6a14 14 0 0 0-6.4 4.8c-1 3.4-.5 5.8.4 9.3 5 6 14.5 7.6 21.8 9.7 11.6 3.5 24.6 7.4 31.2 18.3a54 54 0 0 1 3 39.2 46 46 0 0 1-21.8 25.1c-16.3 7.3-35.7 8.4-52.8 3a61 61 0 0 1-24.4-15.3c-1-3-1-3 .4-6.3a179 179 0 0 1 7.2-12l1.2-2a36 36 0 0 1 6.3-7.8c4 1.4 6.5 3 9.6 5.8 7.6 6.2 16.3 10.8 26.4 10.2a19 19 0 0 0 12-7c1.5-4.4 1.6-8.2.1-12.6-6.5-7.3-18-9.5-27-12.2-11-3.5-21.5-7.7-27.2-18.4a46 46 0 0 1-.8-35.7 45 45 0 0 1 26-24 60 60 0 0 1 19.4-2.2zM2695 1041c0 9.4-4.5 17-9 25l-2 2c-3.7-.4-6.5-1.7-9.8-3.4-7.8-4-14.5-5.6-23.2-3.6-3 1.4-5.5 3-7 6-.3 4-.1 6.6 2 10 7.5 4.5 15.8 6.5 24.2 8.8 12.5 3.7 22.6 8.3 29 20a51 51 0 0 1 .9 37.5c-4.7 11.5-13.2 20.4-24.5 25.6a72 72 0 0 1-49.7 1l-2.3-.8c-8-3.2-17.5-8-22.7-15.2a21 21 0 0 1 3.4-9.3l1.4-2.4 1.5-2.4 1.5-2.4a42 42 0 0 1 8.2-10.5c4 1.4 6.5 3 9.6 5.8 7.6 6.2 16.3 10.8 26.4 10.2 4.8-1 9.2-2.8 12-7a22 22 0 0 0 .2-12.2c-5.4-6.7-15.2-9-23.2-11.2-11.4-3.3-24-7.4-30.6-18-5.6-10.8-6-22.8-2.8-34.4 2-5.6 4.4-9.7 8.4-14l1.5-1.8c18.8-21 54.5-15.6 76.5-3.2zm-957.2-7.4l3.3-.1c9-.1 9-.1 12.7 3 3.8 4.3 3.5 7.8 3.5 13.3v2.7 6l.1 9.3.2 26.5.1 16.2v6.2l.1 8.6v2.6c-.1 4.5-.1 4.5 2.3 8 3 .2 6 .3 9 .3l5.5.1 8.8.1 8.4.1h2.7 2.5 2.2c2.5.5 3.4 1.4 5 3.4.4 3 .4 3 .4 6.3v3.8 4 4c-.1 9.7-.1 9.7-2.3 13-2.6.3-5 .4-7.5.3h-2.3-7.6-5.3l-13.6-.2h-8-12-4.5l-6.3-.1-3.6-.1c-4.5-.6-7.8-2-11-5.2-1.6-2.6-1.7-4.2-1.7-7.3v-3-3.4-3.6-9.7-8-19l-.1-19.7v-17-10-11.3-3.4c.1-8.4.1-8.4 3-12 5-4.5 10-3.6 16.3-3.7zm379.5 0l3.4-.1c9.3-.1 9.3-.1 13 3 3 3.6 3.4 6 3.4 10.5v3 3.3 3.5 11.6 4 18.7l.1 21.6v16.7 10 11 3.3c0 6-.4 9.7-4.5 14.3-4.6 3-10.2 2.3-15.5 2.3h-2.8c-6.2 0-9.6-.8-14.4-5-2.4-3-2.4-5.8-2.4-9.3v-3-3.3-3.5-11.5-4-18.5l-.1-21.4v-16.5-10-11-3.3c0-6 .4-9.7 4.5-14.3 4.7-3.2 9.7-2.4 15.3-2.4z" fill="#f07e39"/><path d="M2555.4 422.7l3.5-.1c3.5.4 4 .7 6 3.4l3.2 6.8 1 2 2 4.5 5.3 12.2 1 2.6a1431 1431 0 0 0 15.3 33.4l5.2 11.3 2 4.5 3 6.6 1 2c1.3 3 2 5 1.8 8-.8 2-.8 2-2.8 3a26 26 0 0 1-10 0c-5.8-4.7-10-19.4-12-24h-51l-10 22c-2 2-2 2-4.3 2.3h-2.7-2.7c-2.3-.3-2.3-.3-4.3-2.3a23 23 0 0 1 3.3-13.7l1-2.2 3.4-7.2 3.5-7.5 2.4-5 10.3-22.6c4-9 8.2-18.3 12.3-27.4l1.4-3 1.3-2.8 1-2.5c2.4-4.5 4.7-4.3 9.5-4.3zm-.4 17.3l-5.2 11.5-1.7 4-13 30.7h41l-20-46h-1zm-63-11l2 2c-.3 4.2-1.2 6.8-4 10a50 50 0 0 1-11.6-2.5c-10.2-3.5-21.5-4.3-31.4.5-3.5 2.3-5.4 4-7 8-.3 2.2-.3 2.2 0 4.4v2.2c1.3 3.5 3.8 5.4 7 7.3a71 71 0 0 0 7.8 2.5l4.5 1.3 4.7 1.3c25.5 7 25.5 7 32.8 17.6 3.3 6.5 3 14.2 1 21-3.3 8.5-8.7 12.3-17 16-14.5 6-31.4 4.3-46-.8-9.3-4.3-9.3-4.3-12-7-.3-3.4-.1-5.7 1-9 2-2 2-2 4.4-2.7 4 .7 7 2.4 10.7 4.3a48 48 0 0 0 33.3 3.1c4.8-1.7 8-4.2 10.4-8.8.3-5.8.3-5.8-2-11-8.6-5.7-18.5-8-28.4-10.3-9.8-2.4-20-5.8-25.6-14.7a29 29 0 0 1-1.9-21.5c2.8-7.5 6.5-12 13.7-16 16.5-7.4 37.5-7 53.2 2.4zm207 4c1 1 1 1 1.3 4.3-.3 3.7-.3 3.7-2 6-3.3 2-4.5 2.3-8.4 1.6l-7.3-4.5c-8.5-4.8-19.4-4.8-29-2.8-9.3 3-17 8.7-21.8 17.3a43 43 0 0 0 0 36 37 37 0 0 0 21.8 17.3c11.3 2.4 22 1.5 32.3-4.3l2-1.6c2.7-2 4.6-1.8 8-1.4 3 2 4 3.3 4.6 7-.8 4.3-2.2 5.4-5.6 8-13.6 8.4-30 10.3-45.4 6.8-14.2-4.2-25.3-12.8-32.6-25.8-6-13.6-7.4-29-2-43a52 52 0 0 1 27.4-28.2 58 58 0 0 1 56.6 7.3z" fill="#192845"/></svg>