<?xml version="1.0" encoding="UTF-8"?>
<svg version="1.1" xmlns="http://www.w3.org/2000/svg" width="940" height="768">
<path d="M0 0 C2.45299206 -0.00461741 4.90598134 -0.01097592 7.35896492 -0.01890898 C12.66027554 -0.032058 17.96137116 -0.03298537 23.26267242 -0.02272034 C31.14627608 -0.00749714 39.02974364 -0.01537333 46.91334659 -0.02755357 C60.99904169 -0.04854831 75.08466394 -0.04681828 89.17036587 -0.03523792 C101.49739443 -0.02515385 113.82439638 -0.02255904 126.15142822 -0.02732849 C127.38056807 -0.0277868 127.38056807 -0.0277868 128.63453902 -0.02825437 C131.96131719 -0.02949984 135.28809534 -0.03077345 138.61487348 -0.03209343 C169.78766995 -0.04431435 200.96042017 -0.03325954 232.1332095 -0.01170584 C259.79504855 0.00727491 287.45681393 0.00557633 315.11865234 -0.0135498 C346.23643307 -0.03499384 377.35417298 -0.04344746 408.47196007 -0.03110075 C411.79248427 -0.02981799 415.11300849 -0.02856662 418.43353271 -0.02732849 C419.25105956 -0.02701218 420.0685864 -0.02669587 420.91088678 -0.02636998 C433.22659283 -0.02183061 445.54226925 -0.02712152 457.85797119 -0.0372467 C471.86919923 -0.0487088 485.88034338 -0.04577119 499.89156103 -0.02412373 C507.72173927 -0.01242329 515.55173561 -0.01154669 523.38190893 -0.02670843 C529.24369366 -0.0368017 535.10531991 -0.02576734 540.96708655 -0.00681013 C543.32686512 -0.00236818 545.68666825 -0.00455559 548.04643083 -0.01431328 C565.54122464 -0.08106523 582.24467118 1.25499723 598.54248047 8.19543457 C599.3669165 8.53792236 600.19135254 8.88041016 601.04077148 9.23327637 C614.3967786 14.95099763 625.67618906 22.6441269 636.29248047 32.50793457 C636.87416992 33.0457959 637.45585938 33.58365723 638.05517578 34.13781738 C663.47351664 57.90829174 677.72656517 88.64046674 679.29248047 123.50793457 C679.47433586 130.59022326 679.43205214 137.6764934 679.42619324 144.76052856 C679.42806368 146.91135332 679.4303653 149.06217773 679.43305856 151.21300161 C679.43915417 157.09857381 679.43904561 162.98413176 679.43786418 168.86970639 C679.43765961 175.22709447 679.44318434 181.58447805 679.44792175 187.94186401 C679.45621655 200.38794011 679.45898905 212.83401131 679.45953413 225.28008993 C679.45999444 235.40023209 679.46205678 245.52037271 679.46523476 255.64051437 C679.46613236 258.55819332 679.46702218 261.47587228 679.46790963 264.39355123 C679.46813068 265.11898549 679.46835173 265.84441975 679.46857948 266.59183687 C679.47473004 286.98531005 679.47868041 307.3787827 679.4782362 327.77225685 C679.47822062 328.54047255 679.47820504 329.30868825 679.47818899 330.10018321 C679.47810589 333.9934299 679.47800685 337.88667659 679.47790428 341.77992328 C679.47787436 342.93965028 679.47787436 342.93965028 679.47784384 344.12280612 C679.47780341 345.68630542 679.47776161 347.24980472 679.47771845 348.81330402 C679.4771059 373.13095378 679.48461014 397.44858958 679.49829102 421.76623535 C679.51367122 449.1154134 679.52225607 476.46458228 679.52132779 503.81376493 C679.52125317 506.73333001 679.52120446 509.65289509 679.52117348 512.57246017 C679.521156 513.65068869 679.521156 513.65068869 679.52113816 514.7506996 C679.52110747 526.28825666 679.52747692 537.82580155 679.53610574 549.363355 C679.54460695 560.9708136 679.54538221 572.57825053 679.53899642 584.18571098 C679.53573836 590.46649759 679.53564871 596.74724036 679.54434967 603.02802277 C679.55224716 608.78827478 679.55075022 614.54844841 679.54206554 620.30869858 C679.54053768 622.38198596 679.54231945 624.45527928 679.54792561 626.52855964 C679.58825963 642.51592815 679.45801569 658.96905997 674.97998047 674.44543457 C674.76124268 675.23208496 674.54250488 676.01873535 674.31713867 676.82922363 C672.4668274 683.29104929 670.22419952 689.4517259 667.29248047 695.50793457 C666.72916016 696.6861377 666.16583984 697.86434082 665.58544922 699.07824707 C652.23494524 726.01996178 628.58480677 747.37642033 601.29248047 759.50793457 C600.22642578 759.99004395 599.16037109 760.47215332 598.06201172 760.96887207 C580.6918702 768.23395027 563.16899653 769.09271468 544.58496094 769.01586914 C542.13196888 769.02048655 539.67897959 769.02684506 537.22599602 769.03477812 C531.9246854 769.04792714 526.62358978 769.04885451 521.32228851 769.03858948 C513.43868485 769.02336628 505.55521729 769.03124247 497.67161435 769.04342271 C483.58591925 769.06441745 469.500297 769.06268742 455.41459507 769.05110706 C443.0875665 769.04102299 430.76056456 769.03842818 418.43353271 769.04319763 C417.20439287 769.04365594 417.20439287 769.04365594 415.95042191 769.04412351 C412.62364375 769.04536898 409.2968656 769.04664259 405.97008746 769.04796257 C374.79729099 769.06018349 343.62454077 769.04912868 312.45175144 769.02757498 C284.78991239 769.00859423 257.128147 769.01029281 229.46630859 769.02941895 C198.34852787 769.05086298 167.23078796 769.0593166 136.11300087 769.04696989 C132.79247666 769.04568713 129.47195245 769.04443576 126.15142822 769.04319763 C125.33390138 769.04288132 124.51637454 769.04256501 123.67407416 769.04223912 C111.35836811 769.03769975 99.04269168 769.04299066 86.72698975 769.05311584 C72.71576171 769.06457794 58.70461756 769.06164033 44.69339991 769.03999287 C36.86322167 769.02829243 29.03322532 769.02741583 21.20305201 769.04257757 C15.34126728 769.05267084 9.47964103 769.04163648 3.61787438 769.02267927 C1.25809581 769.01823733 -1.10170731 769.02042473 -3.46146989 769.03018242 C-20.95626371 769.09693437 -37.65971024 767.76087191 -53.95751953 760.82043457 C-55.19417358 760.30670288 -55.19417358 760.30670288 -56.45581055 759.78259277 C-69.81181766 754.06487151 -81.09122813 746.37174224 -91.70751953 736.50793457 C-92.58005371 735.70114258 -92.58005371 735.70114258 -93.47021484 734.87805176 C-118.8885557 711.1075774 -133.14160423 680.3754024 -134.70751953 645.50793457 C-134.88937492 638.42564588 -134.8470912 631.33937574 -134.8412323 624.25534058 C-134.84310274 622.10451582 -134.84540437 619.95369141 -134.84809762 617.80286753 C-134.85419323 611.91729533 -134.85408467 606.03173738 -134.85290325 600.14616275 C-134.85269867 593.78877467 -134.8582234 587.43139109 -134.86296082 581.07400513 C-134.87125562 568.62792903 -134.87402811 556.18185783 -134.87457319 543.73577921 C-134.87503351 533.61563705 -134.87709585 523.49549643 -134.88027382 513.37535477 C-134.88117142 510.45767582 -134.88206124 507.53999686 -134.8829487 504.62231791 C-134.88316974 503.89688365 -134.88339079 503.17144939 -134.88361854 502.42403228 C-134.8897691 482.03055909 -134.89371947 461.63708644 -134.89327526 441.24361229 C-134.89325968 440.47539659 -134.8932441 439.70718089 -134.89322805 438.91568593 C-134.89314495 435.02243924 -134.89304591 431.12919255 -134.89294335 427.23594587 C-134.8929234 426.46279453 -134.89290345 425.68964319 -134.8928829 424.89306302 C-134.89284247 423.32956372 -134.89280067 421.76606442 -134.89275751 420.20256512 C-134.89214496 395.88491536 -134.8996492 371.56727956 -134.91333008 347.24963379 C-134.92871029 319.90045574 -134.93729514 292.55128686 -134.93636686 265.20210421 C-134.93629223 262.28253913 -134.93624352 259.36297405 -134.93621254 256.44340897 C-134.93620089 255.72458996 -134.93618923 255.00577095 -134.93617722 254.26516955 C-134.93614653 242.72761248 -134.94251598 231.19006759 -134.9511448 219.65251414 C-134.95964601 208.04505554 -134.96042127 196.43761861 -134.95403548 184.83015816 C-134.95077743 178.54937155 -134.95068777 172.26862878 -134.95938873 165.98784637 C-134.96728622 160.22759437 -134.96578929 154.46742073 -134.9571046 148.70717056 C-134.95557675 146.63388318 -134.95735851 144.56058986 -134.96296468 142.4873095 C-135.0032987 126.49994099 -134.87305475 110.04680917 -130.39501953 94.57043457 C-130.06691284 93.39045898 -130.06691284 93.39045898 -129.73217773 92.18664551 C-127.88186647 85.72481986 -125.63923858 79.56414324 -122.70751953 73.50793457 C-122.14419922 72.32973145 -121.58087891 71.15152832 -121.00048828 69.93762207 C-107.64998431 42.99590736 -83.99984584 21.63944881 -56.70751953 9.50793457 C-55.64146484 9.0258252 -54.57541016 8.54371582 -53.47705078 8.04699707 C-36.10690927 0.78191887 -18.58403559 -0.07684554 0 0 Z " fill="#FDFDFD" transform="translate(197.70751953125,-0.5079345703125)"/>
<path d="M0 0 C52.47 0 104.94 0 159 0 C160.65 3.96 162.3 7.92 164 12 C164.598125 13.19625 165.19625 14.3925 165.8125 15.625 C167 18 167 18 167 20 C167.66 20 168.32 20 169 20 C169.31710937 20.71542969 169.63421875 21.43085938 169.9609375 22.16796875 C173.97380883 30.73689012 179.05662033 37.69336987 185 45 C185.71285156 45.90234375 186.42570313 46.8046875 187.16015625 47.734375 C188.99964448 50.07916169 188.99964448 50.07916169 191.3125 52.3125 C194.07749004 55.07749004 196.61689912 57.96693859 199.15625 60.9375 C203.8626483 66.20228454 208.95853464 70.3645847 214.62304688 74.51367188 C216.11626503 75.63145233 217.56277749 76.8110824 219 78 C219 78.66 219 79.32 219 80 C220.32 80.33 221.64 80.66 223 81 C223 81.66 223 82.32 223 83 C224.32 83.33 225.64 83.66 227 84 C227 84.66 227 85.32 227 86 C228.65 86.33 230.3 86.66 232 87 C232 87.66 232 88.32 232 89 C232.721875 89.103125 233.44375 89.20625 234.1875 89.3125 C237.27793421 90.06793947 239.41743841 91.15531315 242 93 C242 93.66 242 94.32 242 95 C243.09054687 95.17402344 243.09054687 95.17402344 244.203125 95.3515625 C247.06157207 96.01427509 249.17532784 96.98669638 251.75 98.375 C255.54045644 100.32295053 259.20022559 101.86296853 263.265625 103.1171875 C265.51175228 103.84236574 267.71091657 104.62221681 269.921875 105.4453125 C277.38896933 108.20784226 284.42785998 110.508443 292.359375 111.5703125 C295.6362649 112.10353423 298.58832052 113.10680053 301.671875 114.31640625 C308.06778729 116.19440063 314.75404634 116.14910748 321.36328125 116.1328125 C322.2359111 116.13376923 323.10854095 116.13472595 324.00761414 116.13571167 C325.84386264 116.1363884 327.6801136 116.1345697 329.51635742 116.13037109 C332.29416414 116.12503522 335.07180774 116.13032339 337.84960938 116.13671875 C353.05926799 116.38946166 353.05926799 116.38946166 368 114 C368 113.34 368 112.68 368 112 C369.010625 111.87625 370.02125 111.7525 371.0625 111.625 C374.8552047 111.02298338 378.31842269 110.07915018 382 109 C383.155 108.68160156 384.31 108.36320313 385.5 108.03515625 C391.55414645 106.35269814 397.27880668 104.58014601 403 102 C404.3925618 101.55219581 405.78875107 101.11558686 407.1875 100.6875 C414.15908502 98.41963499 421.96311623 95.4755313 427 90 C429.37164637 88.41890242 431.34112928 87.1550284 434.125 86.5 C436.47052662 85.87452623 437.34344307 84.72858115 439 83 C440.485 82.505 440.485 82.505 442 82 C442.845625 81.154375 443.69125 80.30875 444.5625 79.4375 C445.7690625 78.2309375 445.7690625 78.2309375 447 77 C447.66 77 448.32 77 449 77 C449 76.34 449 75.68 449 75 C450.40625 73.8359375 450.40625 73.8359375 452.5 72.375 C457.58633313 68.55209898 462.01678091 64.18369368 466.5 59.6875 C467.21865234 58.96933105 467.93730469 58.25116211 468.67773438 57.51123047 C472.2673105 54.0739848 472.2673105 54.0739848 475 50 C475.66 50 476.32 50 477 50 C477.24878906 49.44054687 477.49757813 48.88109375 477.75390625 48.3046875 C479.2080858 45.61513912 480.97644122 43.46950602 482.9375 41.125 C485.86532947 37.53296239 488.20502617 34.26306285 490 30 C490.66 30 491.32 30 492 30 C492.185625 29.071875 492.37125 28.14375 492.5625 27.1875 C493.87404586 22.47742291 496.60527142 18.74357626 499.34375 14.74609375 C501.06420216 11.89355161 502.06393267 9.18730927 503 6 C503.66 6 504.32 6 505 6 C505.33 4.02 505.66 2.04 506 0 C561.11 0 616.22 0 673 0 C673 0.66 673 1.32 673 2 C672.36835937 2.04487549 671.73671875 2.08975098 671.0859375 2.13598633 C655.31713948 3.27632718 639.66793934 4.88665989 624 7 C623.81171631 7.6997998 623.62343262 8.39959961 623.42944336 9.12060547 C616.01723156 36.51062594 616.01723156 36.51062594 610.375 45.625 C608.63826329 48.62481795 607.85279247 51.65442955 607 55 C606.34 55 605.68 55 605 55 C604.67 56.98 604.34 58.96 604 61 C603.34 61 602.68 61 602 61 C601.67 62.98 601.34 64.96 601 67 C600.34 67 599.68 67 599 67 C599 67.99 599 68.98 599 70 C598.34 70 597.68 70 597 70 C596.34764004 73.68809441 595.86189323 77.24986995 596 81 C598.20864421 83.87551522 598.20864421 83.87551522 601 86 C601.66666667 88 602.33333333 90 603 92 C603.60577881 92.29664551 604.21155762 92.59329102 604.83569336 92.89892578 C607.5835848 94.29689424 608.74771401 95.95080723 610.56640625 98.4296875 C611.21673828 99.30753906 611.86707031 100.18539062 612.53710938 101.08984375 C613.20548828 102.00894531 613.87386719 102.92804688 614.5625 103.875 C615.57086914 105.24205078 615.57086914 105.24205078 616.59960938 106.63671875 C617.85206236 108.33567682 619.10120994 110.0370802 620.34594727 111.74169922 C621.44160351 113.23761365 622.56452886 114.7139606 623.71459961 116.16845703 C625 118 625 118 625 120 C625.5878125 120.2475 626.175625 120.495 626.78125 120.75 C633.10648333 124.31351173 636.96467809 131.89895279 639.34375 138.5234375 C640.97577586 144.68239224 640.50432464 150.35043155 638.05078125 156.22265625 C636.30171532 159.18111349 633.71109937 160.95284334 631 163 C629.66172696 164.66270287 628.32810215 166.32916181 627 168 C626.195625 168.639375 625.39125 169.27875 624.5625 169.9375 C622.42683444 171.65645033 620.9941588 173.13803439 619.3125 175.25 C618.549375 176.1575 617.78625 177.065 617 178 C616.34 178 615.68 178 615 178 C614.67 178.99 614.34 179.98 614 181 C613.34 181 612.68 181 612 181 C611.67 181.99 611.34 182.98 611 184 C609.34211215 185.34423339 607.67423683 186.67618483 606 188 C605.34 188.825 604.68 189.65 604 190.5 C601.89680365 193.12899543 599.62100457 194.90319635 597 197 C595.64172029 198.64639965 594.30745749 200.31295807 593 202 C590.875 204.3125 590.875 204.3125 589 206 C588.34 206 587.68 206 587 206 C586.67 206.99 586.34 207.98 586 209 C585.34 209 584.68 209 584 209 C583.67 209.99 583.34 210.98 583 212 C582.34 212 581.68 212 581 212 C580.67 212.99 580.34 213.98 580 215 C579.34 215 578.68 215 578 215 C577.67 215.99 577.34 216.98 577 218 C575.34211215 219.34423339 573.67423683 220.67618483 572 222 C571.38898437 222.78117188 570.77796875 223.56234375 570.1484375 224.3671875 C567.94192002 227.07117438 565.67122593 229.08940816 562.9375 231.25 C562.08027344 231.93578125 561.22304688 232.6215625 560.33984375 233.328125 C555.33849831 236.90170739 549.90525669 236.33720825 544 236 C541.44062742 235.56749279 539.43751003 234.95380827 537 234 C536.67 233.34 536.34 232.68 536 232 C535.01 231.67 534.02 231.34 533 231 C532.855625 230.360625 532.71125 229.72125 532.5625 229.0625 C532.376875 228.381875 532.19125 227.70125 532 227 C530.67984188 226.30760938 529.3426763 225.64764386 528 225 C526.06065162 223.69987818 524.1451677 222.36371855 522.25 221 C521.26515625 220.29875 520.2803125 219.5975 519.265625 218.875 C518.14414063 217.946875 518.14414063 217.946875 517 217 C517 216.34 517 215.68 517 215 C516.34 214.79375 515.68 214.5875 515 214.375 C511.52948354 212.78434662 508.84289379 210.70767229 505.8671875 208.33984375 C503.93516371 206.81385317 503.93516371 206.81385317 501 206 C500.566875 205.071875 500.566875 205.071875 500.125 204.125 C498.61985851 201.28195497 496.78623545 200.55510816 494 199 C491.1875 196.9375 491.1875 196.9375 489 195 C489 194.34 489 193.68 489 193 C483.06342153 191.87409719 480.33356833 191.82255504 475 195 C473.824375 195.495 472.64875 195.99 471.4375 196.5 C468.03991009 197.88813809 468.03991009 197.88813809 465.25 199.6875 C463 201 463 201 460 201 C460 201.66 460 202.32 460 203 C459.10539062 203.30292969 458.21078125 203.60585938 457.2890625 203.91796875 C451.56923937 205.8997838 446.04744317 207.84241168 440.6875 210.6875 C436.83759718 212.7171028 433.29322641 213.82346199 429.0078125 214.54296875 C426.77211173 215.0518734 425.03613699 215.95797695 423 217 C421.6794609 217.41782683 420.34493668 217.79401949 419 218.125 C418.34 218.29257812 417.68 218.46015625 417 218.6328125 C415 219 415 219 411 219 C410.92483154 219.85996582 410.92483154 219.85996582 410.84814453 220.73730469 C410.61187038 223.40864921 410.36845153 226.07930037 410.125 228.75 C410.04636719 229.65105469 409.96773437 230.55210937 409.88671875 231.48046875 C409.44035706 236.32177628 408.84377742 241.07637874 407.98828125 245.86328125 C406.66572552 253.48213813 406.29681646 261.13347662 405.87695312 268.84570312 C405.3689643 276.81334769 404.01928366 284.27733526 402 292 C401.34 292 400.68 292 400 292 C399.9175 292.556875 399.835 293.11375 399.75 293.6875 C398.73706205 296.81072533 397.2842825 298.65226521 395 301 C392.25 301.8125 392.25 301.8125 390 302 C390 302.66 390 303.32 390 304 C388.35 304 386.7 304 385 304 C385 304.66 385 305.32 385 306 C371.00493966 306.07011242 357.00990659 306.12279957 343.01470661 306.15543652 C336.51633429 306.17109973 330.01807986 306.1923503 323.51977539 306.22631836 C317.24985277 306.25888793 310.98004363 306.27684808 304.71004295 306.28463173 C302.31661378 306.29017952 299.92319089 306.30101282 297.52980995 306.31719017 C294.18029936 306.33893204 290.83125913 306.34196822 287.48168945 306.34057617 C285.99383438 306.35675491 285.99383438 306.35675491 284.47592163 306.3732605 C275.83579181 306.3343442 275.83579181 306.3343442 272 303 C272 302.34 272 301.68 272 301 C271.443125 300.814375 270.88625 300.62875 270.3125 300.4375 C266.32845714 297.96093282 263.69501664 294.24114993 262.31518555 289.79174805 C261.84168655 287.40715381 261.48997521 285.03709532 261.1875 282.625 C261.06697266 281.82578125 260.94644531 281.0265625 260.82226562 280.203125 C260.05204541 274.76316965 259.89546021 269.49109007 260 264 C259.34 264 258.68 264 258 264 C257.91697632 263.10692139 257.91697632 263.10692139 257.83227539 262.19580078 C257.57981135 259.50512785 257.32123184 256.81507714 257.0625 254.125 C256.97548828 253.18785156 256.88847656 252.25070312 256.79882812 251.28515625 C256.71181641 250.38925781 256.62480469 249.49335937 256.53515625 248.5703125 C256.456604 247.74289551 256.37805176 246.91547852 256.29711914 246.06298828 C256.10222637 243.9418334 256.10222637 243.9418334 255 242 C253.89206455 234.36755581 253.87913673 226.69496125 254 219 C253.236875 219.02707031 252.47375 219.05414062 251.6875 219.08203125 C248.75495218 218.99252034 246.87110829 218.09492258 244.24609375 216.8671875 C239.35459103 214.9786421 234.11849405 214.08527468 229 213 C229 212.34 229 211.68 229 211 C228.21625 210.9175 227.4325 210.835 226.625 210.75 C221.80205085 209.75214845 217.52982151 207.89960257 213 206 C211.98808594 205.60425781 210.97617187 205.20851563 209.93359375 204.80078125 C201.10264108 201.2971367 201.10264108 201.2971367 197.1875 198.3125 C193.65795708 195.75185122 191.19168665 194.94099088 187 194 C187 193.34 187 192.68 187 192 C182.50674307 190.74386513 182.50674307 190.74386513 178.14208984 191.94873047 C176.24283321 193.36947442 174.46072197 194.86236083 172.6875 196.4375 C166.17646163 202 166.17646163 202 164 202 C164 202.66 164 203.32 164 204 C162.02053408 205.36363208 160.0180755 206.69418644 158 208 C157.56042969 208.44601562 157.12085938 208.89203125 156.66796875 209.3515625 C154.34304376 211.64926354 151.7520814 213.49503209 149.125 215.4375 C146.11108836 217.66960749 143.13034375 219.89199562 140.2421875 222.28515625 C138 224 138 224 136 224 C136 224.66 136 225.32 136 226 C135.0925 226.598125 134.185 227.19625 133.25 227.8125 C129.92661936 229.78795636 129.92661936 229.78795636 128 232.6875 C126 235 126 235 123.3125 235.8125 C116.06223105 236.22289258 110.01818498 236.04165381 103 234 C103 233.34 103 232.68 103 232 C102.41967514 231.74466492 101.83935028 231.48932983 101.24143982 231.22625732 C98.7689645 229.87360402 97.12597379 228.37324691 95.13696289 226.37988281 C94.3926149 225.63861145 93.64826691 224.89734009 92.88136292 224.13360596 C92.08648972 223.33154724 91.29161652 222.52948853 90.47265625 221.703125 C89.6467247 220.87673523 88.82079315 220.05034546 87.96983337 219.19891357 C86.22336684 217.44942656 84.47933081 215.69751037 82.73754883 213.94335938 C80.08137251 211.26900169 77.41735718 208.60265764 74.75195312 205.9375 C73.05421631 204.2348447 71.35693571 202.53173435 69.66015625 200.828125 C68.86730728 200.03416321 68.07445831 199.24020142 67.25758362 198.42218018 C63.28986394 194.42059633 59.573286 190.35410447 56 186 C54.35360035 184.64172029 52.68704193 183.30745749 51 182 C49.32218544 180.3445563 47.65689175 178.67638459 46 177 C45.175 176.18660156 44.35 175.37320313 43.5 174.53515625 C39.09366233 170.1770129 34.88486045 165.8266448 31 161 C30.46375 160.505 29.9275 160.01 29.375 159.5 C24.3427123 154.0102316 24.03916912 147.23761538 24.3046875 140.1484375 C25.03286237 133.46472177 29.24973372 128.52732959 34 124 C34.66 124 35.32 124 36 124 C36.268125 123.2575 36.53625 122.515 36.8125 121.75 C37.95276751 119.10938051 39.09380306 117.14447156 41 115 C41.66 115 42.32 115 43 115 C43.23847656 114.46503906 43.47695312 113.93007813 43.72265625 113.37890625 C45.35775842 110.33371597 47.35588035 107.69590239 49.4375 104.9375 C50.21996094 103.89464844 51.00242188 102.85179687 51.80859375 101.77734375 C53.4661409 99.67660218 55.09724246 97.85785471 57 96 C57.92751201 94.60873198 58.85183862 93.21508154 59.75 91.8046875 C61.81993265 88.81622224 64.23665516 86.09530746 66.609375 83.34375 C68.48633421 80.1803356 68.5188074 78.6575922 68 75 C66.79694251 71.76465056 65.29651318 68.70833036 63.75 65.625 C63.35425781 64.81289063 62.95851562 64.00078125 62.55078125 63.1640625 C61.00370319 59.99889296 59.44105076 56.84480412 57.81054688 53.72167969 C55 48.30133929 55 48.30133929 55 45 C54.34 45 53.68 45 53 45 C51.70756464 40.8803623 50.73747375 37.33168317 51 33 C50.34 33 49.68 33 49 33 C48.505 29.04 48.505 29.04 48 25 C47.34 25 46.68 25 46 25 C45.81824219 24.11248047 45.81824219 24.11248047 45.6328125 23.20703125 C44.90248234 19.76324363 44.2109835 16.51573745 42.875 13.25 C41.87751571 10.6850404 41.93675253 8.72867645 42 6 C41.030625 5.95101563 40.06125 5.90203125 39.0625 5.8515625 C25.91634067 5.13814086 12.8682243 3.90772376 0 1 C0 0.67 0 0.34 0 0 Z " fill="#F07E3A" transform="translate(138,456)"/>
<path d="M0 0 C1.05785202 -0.01182816 2.11570404 -0.02365631 3.20561218 -0.0358429 C6.69091727 -0.06864956 10.1754395 -0.07168697 13.66088867 -0.0715332 C16.09315813 -0.08185277 18.52542453 -0.09291645 20.95768738 -0.10469055 C26.05260225 -0.12410956 31.14724269 -0.1275488 36.2421875 -0.12109375 C42.75572214 -0.1151006 49.26783026 -0.15931887 55.78107166 -0.21698284 C60.80416652 -0.25404084 65.82691947 -0.25888018 70.8501339 -0.25470924 C73.2506167 -0.25757396 75.65111411 -0.27159119 78.05146217 -0.2971859 C81.4167876 -0.32929816 84.77919535 -0.31654381 88.14453125 -0.29296875 C89.616978 -0.32129288 89.616978 -0.32129288 91.11917114 -0.35018921 C98.75384164 -0.22362805 103.63424087 2.46613125 109.26635742 7.56518555 C112.26635742 11.11311925 112.26635742 11.11311925 112.26635742 13.56518555 C112.92635742 13.56518555 113.58635742 13.56518555 114.26635742 13.56518555 C114.3875293 14.64155273 114.50870117 15.71791992 114.63354492 16.8269043 C114.80268478 18.30217974 114.97196325 19.77743929 115.14135742 21.25268555 C115.21999023 21.95458008 115.29862305 22.65647461 115.37963867 23.37963867 C115.89229588 27.81609529 116.51269038 32.22381293 117.20776367 36.63549805 C117.98399151 41.59662214 118.6746045 46.56371052 119.30151367 51.5456543 C119.42870789 52.55480141 119.42870789 52.55480141 119.55847168 53.58433533 C119.9056615 56.35048314 120.25041529 59.11691824 120.59179688 61.88378906 C120.846021 63.93815652 121.10471153 65.99192254 121.36401367 68.0456543 C121.51362549 69.25116943 121.6632373 70.45668457 121.81738281 71.69873047 C122.10776922 74.50085878 122.10776922 74.50085878 123.26635742 76.56518555 C123.49385892 78.43575346 123.67598553 80.31204513 123.82885742 82.19018555 C123.91264648 83.19307617 123.99643555 84.1959668 124.08276367 85.22924805 C124.14334961 86.00010742 124.20393555 86.7709668 124.26635742 87.56518555 C125.03077148 87.72374023 125.79518555 87.88229492 126.58276367 88.0456543 C135.40132806 89.96642464 143.75306564 92.61040043 152.26635742 95.56518555 C154.26544792 96.23457453 156.26513866 96.90218636 158.26635742 97.56518555 C158.26635742 98.22518555 158.26635742 98.88518555 158.26635742 99.56518555 C160.57635742 99.89518555 162.88635742 100.22518555 165.26635742 100.56518555 C165.26635742 101.22518555 165.26635742 101.88518555 165.26635742 102.56518555 C166.25635742 102.56518555 167.24635742 102.56518555 168.26635742 102.56518555 C168.26635742 103.22518555 168.26635742 103.88518555 168.26635742 104.56518555 C169.41104492 104.65799805 169.41104492 104.65799805 170.57885742 104.75268555 C177.38519541 106.25238714 183.80252492 109.2276694 189.26635742 113.56518555 C192.08989423 115.44754342 193.0459453 115.59061771 196.51635742 115.19018555 C197.42385742 114.98393555 198.33135742 114.77768555 199.26635742 114.56518555 C199.26635742 113.90518555 199.26635742 113.24518555 199.26635742 112.56518555 C201.35608012 110.76978999 203.44477824 109.09457113 205.64135742 107.44018555 C206.5462793 106.73829102 206.5462793 106.73829102 207.46948242 106.0222168 C212.00494616 102.56518555 212.00494616 102.56518555 214.26635742 102.56518555 C214.26635742 101.90518555 214.26635742 101.24518555 214.26635742 100.56518555 C215.57641602 99.36352539 215.57641602 99.36352539 217.41479492 98.02612305 C218.08623535 97.53144531 218.75767578 97.03676758 219.44946289 96.52709961 C220.17278809 96.00341797 220.89611328 95.47973633 221.64135742 94.94018555 C223.11115393 93.86088007 224.57990428 92.78014849 226.04760742 91.69799805 C226.76819336 91.16722656 227.4887793 90.63645508 228.23120117 90.08959961 C231.72899972 87.46960751 235.08988775 84.69200432 238.44604492 81.89331055 C240.26635742 80.56518555 240.26635742 80.56518555 242.26635742 80.56518555 C242.26635742 79.90518555 242.26635742 79.24518555 242.26635742 78.56518555 C244.31323242 76.8737793 244.31323242 76.8737793 247.01635742 75.00268555 C248.33893555 74.07262695 248.33893555 74.07262695 249.68823242 73.1237793 C255.10122315 69.85138036 261.08376235 69.83535411 267.26635742 70.56518555 C273.07004323 72.60976996 277.30653394 76.22471385 281.44309998 80.67803955 C283.11504028 82.40856612 284.82840146 83.94335517 286.66894531 85.48999023 C292.81715914 90.82617251 298.50733623 96.64171946 304.26245117 102.39331055 C305.5040838 103.6317247 306.74578935 104.87006574 307.98756409 106.1083374 C310.57372102 108.68854136 313.15783839 111.27076824 315.74072266 113.85424805 C319.05340483 117.16703253 322.3729556 120.47284293 325.69424343 123.77699661 C328.25320737 126.32486672 330.80763848 128.87724372 333.36079597 131.43093109 C334.58362673 132.65258118 335.80808078 133.87260861 337.03417778 135.09098053 C338.74060929 136.78764957 340.44063007 138.49049437 342.13916016 140.19506836 C342.64663788 140.69692657 343.1541156 141.19878479 343.67697144 141.71585083 C345.94539343 144.00491219 347.230593 145.45789228 348.26635742 148.56518555 C348.92635742 148.89518555 349.58635742 149.22518555 350.26635742 149.56518555 C352.42589794 156.04380709 352.93354418 165.81681264 350.10229492 172.18237305 C348.59405738 174.10827637 346.97037876 175.81270863 345.26635742 177.56518555 C344.37907857 178.94020832 343.52418749 180.3367018 342.70385742 181.75268555 C340.6177675 185.18702009 338.15045949 187.7569809 335.26635742 190.56518555 C334.77135742 191.39018555 334.27635742 192.21518555 333.76635742 193.06518555 C331.978114 196.04559125 329.72021367 198.1113293 327.26635742 200.56518555 C326.54448242 201.65831055 325.82260742 202.75143555 325.07885742 203.87768555 C324.48073242 204.76456055 323.88260742 205.65143555 323.26635742 206.56518555 C322.60635742 206.56518555 321.94635742 206.56518555 321.26635742 206.56518555 C321.03948242 207.45206055 320.81260742 208.33893555 320.57885742 209.25268555 C319.05658997 213.09459864 317.24219014 214.72461795 314.26635742 217.56518555 C313.13205104 218.87297408 312.02879243 220.2081754 310.95385742 221.56518555 C310.44209961 222.20456055 309.9303418 222.84393555 309.40307617 223.50268555 C307.99129756 226.06426323 307.95342406 227.67872561 308.26635742 230.56518555 C309.23067818 232.25274688 310.22846161 233.92185051 311.26635742 235.56518555 C311.26635742 236.55518555 311.26635742 237.54518555 311.26635742 238.56518555 C311.92635742 238.56518555 312.58635742 238.56518555 313.26635742 238.56518555 C321.69752132 256.00828236 321.69752132 256.00828236 323.68041992 262.6394043 C324.33396939 264.78740356 325.13315049 266.85077111 325.95385742 268.94018555 C327.26635742 272.56518555 327.26635742 272.56518555 327.26635742 275.56518555 C327.92635742 275.56518555 328.58635742 275.56518555 329.26635742 275.56518555 C331.15003603 278.90221964 331.95890682 282.1432265 332.76635742 285.87768555 C333.77266514 290.49904435 334.95217832 295.02189031 336.26635742 299.56518555 C337.52295166 299.70617676 338.7795459 299.84716797 340.07421875 299.99243164 C344.73240364 300.51726018 349.38930749 301.05277989 354.04589844 301.59155273 C356.06216593 301.82331881 358.07876988 302.05217704 360.09570312 302.27807617 C362.99336449 302.60312748 365.88965826 302.93858859 368.78588867 303.27612305 C369.68910355 303.37516937 370.59231842 303.4742157 371.52290344 303.57626343 C372.36354843 303.67621613 373.20419342 303.77616882 374.0703125 303.87915039 C375.17950798 304.00572525 375.17950798 304.00572525 376.31111145 304.13485718 C378.26635742 304.56518555 378.26635742 304.56518555 381.26635742 306.56518555 C327.80635742 306.56518555 274.34635742 306.56518555 219.26635742 306.56518555 C213.64135742 296.44018555 213.64135742 296.44018555 213.26635742 290.56518555 C212.60635742 290.56518555 211.94635742 290.56518555 211.26635742 290.56518555 C211.18385742 289.78143555 211.10135742 288.99768555 211.01635742 288.19018555 C210.76885742 287.32393555 210.52135742 286.45768555 210.26635742 285.56518555 C209.65018555 285.29706055 209.03401367 285.02893555 208.39916992 284.75268555 C205.38613639 283.07509911 204.78740424 281.05565725 203.39135742 277.94018555 C198.12061124 266.88479543 189.99278667 258.07345406 181.26635742 249.56518555 C179.93165727 248.23322044 178.59844755 246.89976092 177.26635742 245.56518555 C176.57928711 244.8794043 175.8922168 244.19362305 175.18432617 243.48706055 C173.63963641 241.93922477 172.10724689 240.37911895 170.57885742 238.81518555 C167.34778501 235.67143942 164.57836049 233.0025199 160.26635742 231.56518555 C159.83323242 230.78143555 159.40010742 229.99768555 158.95385742 229.19018555 C156.86263695 225.93717592 154.77599669 225.04703324 151.26635742 223.56518555 C151.26635742 222.90518555 151.26635742 222.24518555 151.26635742 221.56518555 C148.95635742 220.90518555 146.64635742 220.24518555 144.26635742 219.56518555 C144.26635742 218.90518555 144.26635742 218.24518555 144.26635742 217.56518555 C143.54448242 217.27643555 142.82260742 216.98768555 142.07885742 216.69018555 C139.47469076 215.64851888 136.87052409 214.60685221 134.26635742 213.56518555 C134.26635742 212.90518555 134.26635742 212.24518555 134.26635742 211.56518555 C130.7113258 210.07038249 127.18050855 208.92797259 123.45385742 207.94018555 C122.47803711 207.67979492 121.5022168 207.4194043 120.49682617 207.15112305 C119.76077148 206.95776367 119.0247168 206.7644043 118.26635742 206.56518555 C118.26635742 205.90518555 118.26635742 205.24518555 118.26635742 204.56518555 C117.62827148 204.46979492 116.99018555 204.3744043 116.33276367 204.27612305 C112.13255562 203.30231685 108.22471224 201.73066862 104.20385742 200.19018555 C89.19956412 194.61373115 75.19645482 192.6929263 59.26635742 191.56518555 C59.26635742 190.90518555 59.26635742 190.24518555 59.26635742 189.56518555 C44.41635742 189.89518555 29.56635742 190.22518555 14.26635742 190.56518555 C14.26635742 191.22518555 14.26635742 191.88518555 14.26635742 192.56518555 C9.64635742 192.89518555 5.02635742 193.22518555 0.26635742 193.56518555 C0.26635742 194.22518555 0.26635742 194.88518555 0.26635742 195.56518555 C-6.04124515 197.21199804 -12.24891264 198.82828442 -18.73364258 199.56518555 C-18.73364258 200.22518555 -18.73364258 200.88518555 -18.73364258 201.56518555 C-20.66922857 202.23738905 -22.6071863 202.90276632 -24.54614258 203.56518555 C-25.62508789 203.93643555 -26.7040332 204.30768555 -27.81567383 204.69018555 C-30.73364258 205.56518555 -30.73364258 205.56518555 -33.73364258 205.56518555 C-33.73364258 206.22518555 -33.73364258 206.88518555 -33.73364258 207.56518555 C-34.55348633 207.8797168 -35.37333008 208.19424805 -36.21801758 208.51831055 C-37.29567383 208.9462793 -38.37333008 209.37424805 -39.48364258 209.81518555 C-41.0846582 210.44166992 -41.0846582 210.44166992 -42.71801758 211.08081055 C-45.7673197 212.58176237 -47.40518087 214.14436315 -49.73364258 216.56518555 C-51.77661133 217.61987305 -51.77661133 217.61987305 -53.92114258 218.44018555 C-59.96845004 220.97324645 -66.04156494 224.02706909 -69.73364258 229.56518555 C-71.41501798 230.48829361 -73.09744804 231.40960856 -74.78833008 232.31518555 C-77.70752343 234.19097244 -79.91685294 236.62973505 -82.25317383 239.17456055 C-83.73364258 240.56518555 -83.73364258 240.56518555 -85.73364258 240.56518555 C-85.73364258 241.22518555 -85.73364258 241.88518555 -85.73364258 242.56518555 C-87.11068082 243.66681614 -88.48922281 244.76660711 -89.87426758 245.8581543 C-93.0072177 248.73441313 -95.44672475 252.16491673 -97.99926758 255.5534668 C-98.57161133 256.21733398 -99.14395508 256.88120117 -99.73364258 257.56518555 C-100.39364258 257.56518555 -101.05364258 257.56518555 -101.73364258 257.56518555 C-102.12036133 258.40049805 -102.12036133 258.40049805 -102.51489258 259.25268555 C-104.37211929 262.77665418 -106.75435431 265.89905608 -109.07739258 269.12768555 C-110.50436394 271.22775661 -111.66924822 273.26609374 -112.73364258 275.56518555 C-113.39364258 275.56518555 -114.05364258 275.56518555 -114.73364258 275.56518555 C-115.04301758 276.34893555 -115.35239258 277.13268555 -115.67114258 277.94018555 C-116.73364258 280.56518555 -116.73364258 280.56518555 -117.73364258 282.56518555 C-118.39364258 282.56518555 -119.05364258 282.56518555 -119.73364258 282.56518555 C-119.88833008 283.61706055 -119.88833008 283.61706055 -120.04614258 284.69018555 C-120.8272326 287.95656202 -122.15423001 290.61237075 -123.73364258 293.56518555 C-124.39364258 293.56518555 -125.05364258 293.56518555 -125.73364258 293.56518555 C-125.85481445 294.1684668 -125.97598633 294.77174805 -126.10083008 295.39331055 C-126.35219727 296.59213867 -126.35219727 296.59213867 -126.60864258 297.81518555 C-126.85227539 298.99854492 -126.85227539 298.99854492 -127.10083008 300.20581055 C-127.73364258 302.56518555 -127.73364258 302.56518555 -129.73364258 306.56518555 C-183.52364258 306.56518555 -237.31364258 306.56518555 -292.73364258 306.56518555 C-292.73364258 306.23518555 -292.73364258 305.90518555 -292.73364258 305.56518555 C-288.12997323 305.01030824 -283.52587902 304.45913929 -278.92138672 303.91113281 C-277.36104892 303.72493154 -275.80082342 303.53778631 -274.24072266 303.34960938 C-264.74678022 302.20520937 -255.27813816 301.19461997 -245.73364258 300.56518555 C-245.77489258 299.47206055 -245.81614258 298.37893555 -245.85864258 297.25268555 C-245.73364258 293.56518555 -245.73364258 293.56518555 -243.73364258 290.56518555 C-243.12189277 287.99752009 -242.58300723 285.46974952 -242.10864258 282.87768555 C-241.90754883 281.82484375 -241.90754883 281.82484375 -241.70239258 280.75073242 C-241.37337088 279.02336849 -241.05268946 277.29441963 -240.73364258 275.56518555 C-240.07364258 275.56518555 -239.41364258 275.56518555 -238.73364258 275.56518555 C-238.60086914 275.0237793 -238.4680957 274.48237305 -238.33129883 273.92456055 C-237.64416253 271.21194404 -236.91013799 268.51412532 -236.17114258 265.81518555 C-235.90172852 264.8303418 -235.63231445 263.84549805 -235.35473633 262.83081055 C-235.14977539 262.0831543 -234.94481445 261.33549805 -234.73364258 260.56518555 C-234.07364258 260.56518555 -233.41364258 260.56518555 -232.73364258 260.56518555 C-232.63051758 259.90518555 -232.52739258 259.24518555 -232.42114258 258.56518555 C-231.54150693 254.72677546 -230.16394361 251.23421864 -228.73364258 247.56518555 C-228.07364258 247.56518555 -227.41364258 247.56518555 -226.73364258 247.56518555 C-226.23864258 244.59518555 -226.23864258 244.59518555 -225.73364258 241.56518555 C-225.07364258 241.56518555 -224.41364258 241.56518555 -223.73364258 241.56518555 C-223.23864258 238.59518555 -223.23864258 238.59518555 -222.73364258 235.56518555 C-222.07364258 235.56518555 -221.41364258 235.56518555 -220.73364258 235.56518555 C-220.40364258 233.91518555 -220.07364258 232.26518555 -219.73364258 230.56518555 C-219.07364258 230.56518555 -218.41364258 230.56518555 -217.73364258 230.56518555 C-218.79239332 227.16205816 -219.74266412 224.55165323 -221.73364258 221.56518555 C-221.73364258 220.57518555 -221.73364258 219.58518555 -221.73364258 218.56518555 C-222.45938477 218.35893555 -223.18512695 218.15268555 -223.93286133 217.94018555 C-227.48974365 216.19398948 -229.31179366 213.71781098 -231.54614258 210.56518555 C-231.9528418 210.01862305 -232.35954102 209.47206055 -232.77856445 208.90893555 C-235.73364258 204.85625698 -235.73364258 204.85625698 -235.73364258 202.56518555 C-236.72364258 202.23518555 -237.71364258 201.90518555 -238.73364258 201.56518555 C-239.74104004 199.90297974 -240.73887213 198.23497881 -241.73364258 196.56518555 C-242.87988668 195.214255 -244.04858136 193.88219686 -245.23364258 192.56518555 C-247.80366403 189.6947023 -249.77515128 186.88610558 -251.73364258 183.56518555 C-253.29478555 181.71284493 -254.89494913 179.90642824 -256.52661133 178.1159668 C-257.73364258 176.56518555 -257.73364258 176.56518555 -257.73364258 174.56518555 C-258.39364258 174.56518555 -259.05364258 174.56518555 -259.73364258 174.56518555 C-260.06364258 173.24518555 -260.39364258 171.92518555 -260.73364258 170.56518555 C-261.39364258 170.56518555 -262.05364258 170.56518555 -262.73364258 170.56518555 C-264.59316155 163.97505032 -264.4890582 156.84753317 -261.73364258 150.56518555 C-254.57546479 141.57865638 -245.95631822 133.62421124 -237.84692383 125.51049805 C-236.41677367 124.07712774 -234.98669583 122.64368527 -233.5566864 121.21017456 C-230.57731634 118.22485466 -227.59592558 115.24156987 -224.61328125 112.25952148 C-220.79864348 108.44498586 -216.99096497 104.62358294 -213.18496418 100.80043221 C-210.2415302 97.84587292 -207.29355556 94.89587664 -204.34428978 91.94713974 C-202.9381146 90.53978804 -201.53355248 89.13082264 -200.13067055 87.72018814 C-198.17143326 85.75112721 -196.20592997 83.78853377 -194.23876953 81.82739258 C-193.66668259 81.24968613 -193.09459564 80.67197968 -192.50517273 80.07676697 C-186.33908256 73.95838138 -181.26666109 70.67870001 -172.42114258 70.31518555 C-167.77465989 70.37724208 -163.80950933 71.29762588 -159.73364258 73.56518555 C-156.73364258 76.65893555 -156.73364258 76.65893555 -156.73364258 79.56518555 C-156.04270508 79.6322168 -155.35176758 79.69924805 -154.63989258 79.76831055 C-150.85204015 80.80691525 -148.2428232 82.89946282 -145.23364258 85.31518555 C-144.67805664 85.74573242 -144.1224707 86.1762793 -143.55004883 86.61987305 C-140.03785269 89.38004601 -136.75010408 92.25608226 -133.73364258 95.56518555 C-133.73364258 96.22518555 -133.73364258 96.88518555 -133.73364258 97.56518555 C-132.86739258 97.81268555 -132.00114258 98.06018555 -131.10864258 98.31518555 C-127.52304194 99.64318578 -124.7703627 101.25149402 -121.73364258 103.56518555 C-121.73364258 104.22518555 -121.73364258 104.88518555 -121.73364258 105.56518555 C-121.18321289 105.81913086 -120.6327832 106.07307617 -120.06567383 106.3347168 C-116.38312318 108.27777116 -113.07181888 110.78950798 -109.68286133 113.2019043 C-105.77302284 115.00923361 -103.88022139 114.66710457 -99.73364258 113.56518555 C-96.87944259 112.32236998 -94.19155118 110.84713384 -91.48364258 109.31518555 C-89.97839534 108.49125903 -88.47188375 107.66963813 -86.96411133 106.8503418 C-86.23885254 106.45476074 -85.51359375 106.05917969 -84.76635742 105.65161133 C-80.52678272 103.38568442 -76.15477822 101.4450385 -71.73364258 99.56518555 C-70.88415039 99.19651367 -70.0346582 98.8278418 -69.15942383 98.44799805 C-64.42093657 96.45972009 -59.91217283 95.1150899 -54.87817383 94.12768555 C-51.93841726 93.35660186 -49.50583275 91.95501536 -46.85473633 90.4987793 C-43.63260847 89.08056832 -40.31581423 88.73288553 -36.83520508 88.3503418 C-34.52658529 87.75792948 -34.52658529 87.75792948 -33.6418457 85.41577148 C-32.63782423 82.26443957 -32.31972427 79.46970249 -32.10083008 76.1706543 C-31.97514648 74.36757812 -31.97514648 74.36757812 -31.84692383 72.52807617 C-31.76829102 71.28219727 -31.6896582 70.03631836 -31.60864258 68.75268555 C-31.4790918 66.85486328 -31.4790918 66.85486328 -31.34692383 64.91870117 C-31.1351743 61.80127756 -30.93101926 58.6835467 -30.73364258 55.56518555 C-30.07364258 55.56518555 -29.41364258 55.56518555 -28.73364258 55.56518555 C-28.7568457 54.84459961 -28.78004883 54.12401367 -28.80395508 53.3815918 C-29.01115394 41.05325962 -27.8204135 28.83471361 -26.73364258 16.56518555 C-26.07364258 16.56518555 -25.41364258 16.56518555 -24.73364258 16.56518555 C-24.69239258 15.88456055 -24.65114258 15.20393555 -24.60864258 14.50268555 C-22.80911948 8.46142945 -18.30392946 4.45653277 -12.88271523 1.43167686 C-8.72396079 -0.24510434 -4.42702418 -0.01516661 0 0 Z " fill="#F07E3A" transform="translate(425.733642578125,5.434814453125)"/>
<path d="M0 0 C13.550625 -0.12375 13.550625 -0.12375 27.375 -0.25 C30.18692871 -0.28641602 32.99885742 -0.32283203 35.89599609 -0.36035156 C55.65766803 -0.50951605 76.31086954 -0.01909197 91.8125 14 C104.578764 27.78756513 105.80430128 44.59822394 105.14794922 62.50585938 C104.40513662 75.02825794 100.12837771 88.07908542 91 97 C77.94824911 108.47520277 61.32342103 110.16786398 44.62890625 110.09765625 C43.49578003 110.09664917 42.36265381 110.09564209 41.19519043 110.09460449 C36.98428325 110.08939384 32.77339055 110.07543264 28.5625 110.0625 C19.136875 110.041875 9.71125 110.02125 0 110 C0 73.7 0 37.4 0 0 Z " fill="#192845" transform="translate(252,327)"/>
<path d="M0 0 C31.35 0 62.7 0 95 0 C95 8.91 95 17.82 95 27 C75.53 27 56.06 27 36 27 C36 31.95 36 36.9 36 42 C52.83 42 69.66 42 87 42 C87 50.25 87 58.5 87 67 C70.17 67 53.34 67 36 67 C36 72.61 36 78.22 36 84 C55.8 84 75.6 84 96 84 C96 92.58 96 101.16 96 110 C64.32 110 32.64 110 0 110 C0 73.7 0 37.4 0 0 Z " fill="#1A2946" transform="translate(376,327)"/>
<path d="M0 0 C4.96473851 4.60634975 8.50013032 10.56478949 9.71484375 17.26953125 C9.71484375 19.57953125 9.71484375 21.88953125 9.71484375 24.26953125 C-1.17515625 24.26953125 -12.06515625 24.26953125 -23.28515625 24.26953125 C-24.60515625 21.62953125 -25.92515625 18.98953125 -27.28515625 16.26953125 C-31.65459618 14.08481128 -33.96649263 14.00056013 -38.78515625 14.01953125 C-40.7496875 14.01179688 -40.7496875 14.01179688 -42.75390625 14.00390625 C-46.84450276 14.30946465 -46.84450276 14.30946465 -50.28515625 16.26953125 C-51.10100193 19.32861538 -51.10100193 19.32861538 -51.28515625 22.26953125 C-44.12474086 27.63524098 -36.50742545 29.11641909 -27.91015625 30.83203125 C0.48534441 36.60175532 0.48534441 36.60175532 8.3515625 47.546875 C13.12502907 55.76708535 14.28159517 65.00252556 11.9609375 74.28515625 C8.38293446 84.5561297 2.57562165 92.6140618 -7.34765625 97.51953125 C-27.0115102 105.26488629 -51.25143109 104.47538496 -70.84765625 96.95703125 C-79.50173726 93.00523545 -84.47187431 88.01326757 -88.28515625 79.26953125 C-90.26503059 73.79394129 -90.28515625 69.23212972 -90.28515625 63.26953125 C-79.06515625 63.26953125 -67.84515625 63.26953125 -56.28515625 63.26953125 C-55.62515625 66.23953125 -54.96515625 69.20953125 -54.28515625 72.26953125 C-51.34766901 75.27600058 -48.59182207 75.44213572 -44.5625 75.6328125 C-42.78247209 75.63149102 -41.00239557 75.61411019 -39.22265625 75.58203125 C-38.32482422 75.58525391 -37.42699219 75.58847656 -36.50195312 75.59179688 C-32.14743793 75.55618374 -29.13210266 75.47287707 -25.28515625 73.26953125 C-25.28515625 70.95953125 -25.28515625 68.64953125 -25.28515625 66.26953125 C-29.80925829 63.77809908 -34.20809052 62.40604688 -39.22265625 61.33203125 C-40.73857364 60.98695907 -42.25419392 60.64057936 -43.76953125 60.29296875 C-45.94958303 59.79851445 -48.12972626 59.30452923 -50.31054688 58.81347656 C-62.19462858 56.08627848 -77.09632004 52.00008149 -84.28515625 41.26953125 C-88.96116039 32.66175185 -89.89431911 22.90506798 -87.58984375 13.40234375 C-83.98614186 3.43916795 -77.6216627 -2.06932093 -68.28515625 -6.73046875 C-47.11596932 -15.9571091 -18.63934816 -14.11492519 0 0 Z " fill="#1A2946" transform="translate(682.28515625,336.73046875)"/>
<path d="M0 0 C11.55 0 23.1 0 35 0 C35 27.06 35 54.12 35 82 C53.48 82 71.96 82 91 82 C91 91.24 91 100.48 91 110 C60.97 110 30.94 110 0 110 C0 73.7 0 37.4 0 0 Z " fill="#192845" transform="translate(491,327)"/>
<path d="M0 0 C11.88 0 23.76 0 36 0 C36 36.3 36 72.6 36 110 C24.12 110 12.24 110 0 110 C0 73.7 0 37.4 0 0 Z " fill="#1A2946" transform="translate(193,327)"/>
<path d="M0 0 C11.55 0 23.1 0 35 0 C35 36.3 35 72.6 35 110 C23.45 110 11.9 110 0 110 C0 73.7 0 37.4 0 0 Z " fill="#192845" transform="translate(712,327)"/>
<path d="M0 0 C19 0 19 0 27 4 C33.30050377 10.30050377 34.26291325 16.06726942 34.32226562 24.66796875 C34.31904297 25.72628906 34.31582031 26.78460938 34.3125 27.875 C34.32861328 28.92558594 34.34472656 29.97617187 34.36132812 31.05859375 C34.36611251 38.70403847 33.69976144 44.71650636 28.6875 50.8125 C19.67547067 58.14787271 11.84786029 57 0 57 C0 38.19 0 19.38 0 0 Z " fill="#F9F9FA" transform="translate(287,354)"/>
<path d="M0 0 C4.08602812 3.50230982 6.01469936 6.34448001 6.625 11.75 C6.27683709 17.61261423 4.8699701 22.23356575 0.625 26.375 C-3.99052731 28.38904828 -7.85471958 28.80055966 -12.8125 27.875 C-16.39968439 26.14756489 -18.37111946 23.70018971 -20.25 20.1875 C-21.20793937 14.5463015 -20.81086255 9.221152 -18.5625 3.9375 C-13.59937237 -1.91190043 -6.98760883 -2.79504353 0 0 Z " fill="#1E2D49" transform="translate(505.8125,467.125)"/>
<path d="M0 0 C4.58885076 1.8355403 6.83696971 4.59382719 9 9 C10.1618122 15.42223968 9.06128272 20.01880875 5.484375 25.40625 C3.14486322 27.91814686 1.00611957 28.84227498 -2.3671875 29.37109375 C-6.791729 29.48825451 -10.01062707 29.54275862 -13.5625 26.6875 C-17.77901977 22.03851666 -17.44599004 17.28569066 -17.42578125 11.25 C-16.80285574 6.49519247 -14.72368528 3.89405592 -11 1 C-7.54563368 -0.72718316 -3.78399381 -0.35474942 0 0 Z " fill="#1D2C48" transform="translate(393,466)"/>
<path d="M0 0 C8 0 8 0 9.734375 1.37695312 C10.06953125 2.00537109 10.4046875 2.63378906 10.75 3.28125 C11.32041016 4.29638672 11.32041016 4.29638672 11.90234375 5.33203125 C12.26457031 6.04746094 12.62679687 6.76289063 13 7.5 C13.39316406 8.21542969 13.78632812 8.93085938 14.19140625 9.66796875 C15.1549873 11.43061701 16.08126339 13.2135677 17 15 C17.33 10.38 17.66 5.76 18 1 C20.31 1 22.62 1 25 1 C25 10.24 25 19.48 25 29 C22.36 29 19.72 29 17 29 C14.9808894 26.75654378 13.88340912 25.22837183 12.5625 22.625 C12.22541016 22.02171875 11.88832031 21.4184375 11.54101562 20.796875 C10.30124031 18.56080729 9.14331568 16.28663136 8 14 C7.67 18.95 7.34 23.9 7 29 C4.69 29 2.38 29 0 29 C0 19.43 0 9.86 0 0 Z " fill="#273550" transform="translate(515,466)"/>
<path d="M0 0 C2.64 0 5.28 0 8 0 C8.08745946 3.3956697 8.14054444 6.79104773 8.1875 10.1875 C8.21263672 11.14720703 8.23777344 12.10691406 8.26367188 13.09570312 C8.35589035 21.97941639 8.35589035 21.97941639 5 26 C1.16446162 29.37062464 -2.70071383 29.55825315 -7.62109375 29.43359375 C-11.23790449 28.77437209 -12.84124698 26.85512497 -15 24 C-15.33 23.67 -15.66 23.34 -16 23 C-16.08700342 21.36527118 -16.10701063 19.72685945 -16.09765625 18.08984375 C-16.09443359 17.10048828 -16.09121094 16.11113281 -16.08789062 15.09179688 C-16.07951172 14.05087891 -16.07113281 13.00996094 -16.0625 11.9375 C-16.05798828 10.89271484 -16.05347656 9.84792969 -16.04882812 8.77148438 C-16.03699913 6.1809334 -16.02051689 3.59049441 -16 1 C-13.69 1 -11.38 1 -9 1 C-8.97494385 1.60062256 -8.9498877 2.20124512 -8.92407227 2.82006836 C-8.8084472 5.52611437 -8.68557064 8.23178283 -8.5625 10.9375 C-8.52318359 11.88302734 -8.48386719 12.82855469 -8.44335938 13.80273438 C-8.40146484 14.70185547 -8.35957031 15.60097656 -8.31640625 16.52734375 C-8.27974854 17.35999756 -8.24309082 18.19265137 -8.20532227 19.05053711 C-8.20632897 21.00338858 -8.20632897 21.00338858 -7 22 C-5.02 22 -3.04 22 -1 22 C-0.67 14.74 -0.34 7.48 0 0 Z " fill="#283651" transform="translate(439,466)"/>
<path d="M0 0 C6.27 0 12.54 0 19 0 C19 1.98 19 3.96 19 6 C15.04 6 11.08 6 7 6 C7 7.98 7 9.96 7 12 C9.97 12 12.94 12 16 12 C16 13.65 16 15.3 16 17 C13.03 17 10.06 17 7 17 C7 18.98 7 20.96 7 23 C10.96 23 14.92 23 19 23 C19 24.65 19 26.3 19 28 C18 29 18 29 16.23413086 29.11352539 C15.48526611 29.10828857 14.73640137 29.10305176 13.96484375 29.09765625 C12.87224243 29.09390991 12.87224243 29.09390991 11.75756836 29.09008789 C10.8269458 29.08098389 9.89632324 29.07187988 8.9375 29.0625 C4.5134375 29.0315625 4.5134375 29.0315625 0 29 C0 19.43 0 9.86 0 0 Z " fill="#21304C" transform="translate(546,466)"/>
<path d="M0 0 C0.495 0.165 0.99 0.33 1.5 0.5 C1.17 2.81 0.84 5.12 0.5 7.5 C-2.8 7.17 -6.1 6.84 -9.5 6.5 C-9.5 7.16 -9.5 7.82 -9.5 8.5 C-7.28125737 10.02205102 -7.28125737 10.02205102 -4.5625 11.5 C0.39432485 14.28864971 0.39432485 14.28864971 1.5 16.5 C2.07801822 22.74259681 2.07801822 22.74259681 -0.3125 25.875 C-3.7126805 28.40084837 -6.44900968 28.63711632 -10.5625 28.625 C-11.87927734 28.62886719 -11.87927734 28.62886719 -13.22265625 28.6328125 C-15.5 28.5 -15.5 28.5 -17.5 27.5 C-17.5 25.19 -17.5 22.88 -17.5 20.5 C-16.7265625 20.7165625 -16.7265625 20.7165625 -15.9375 20.9375 C-12.81490429 21.65809901 -9.67449308 22.07266439 -6.5 22.5 C-6.5 21.51 -6.5 20.52 -6.5 19.5 C-7.12648438 19.18546875 -7.75296875 18.8709375 -8.3984375 18.546875 C-9.21570313 18.11890625 -10.03296875 17.6909375 -10.875 17.25 C-11.68710937 16.83234375 -12.49921875 16.4146875 -13.3359375 15.984375 C-15.74368755 14.33284969 -16.49196387 13.20409691 -17.5 10.5 C-17.9375 8.0625 -17.9375 8.0625 -17.5 5.5 C-12.27843921 -0.54601776 -7.69952418 -1.53990484 0 0 Z " fill="#1F2E4A" transform="translate(584.5,466.5)"/>
<path d="M0 0 C0.495 0.165 0.99 0.33 1.5 0.5 C1.17 2.81 0.84 5.12 0.5 7.5 C-2.8 7.17 -6.1 6.84 -9.5 6.5 C-9.5 7.16 -9.5 7.82 -9.5 8.5 C-7.2840167 10.05899937 -7.2840167 10.05899937 -4.5625 11.5625 C0.44039735 14.44039735 0.44039735 14.44039735 1.5 15.5 C2.31064163 22.44835681 2.31064163 22.44835681 -0.8125 26.5 C-5.1590983 29.60620215 -10.40233241 29.08306655 -15.5 28.5 C-16.16 28.17 -16.82 27.84 -17.5 27.5 C-17.5 25.19 -17.5 22.88 -17.5 20.5 C-16.7265625 20.7165625 -16.7265625 20.7165625 -15.9375 20.9375 C-12.81490429 21.65809901 -9.67449308 22.07266439 -6.5 22.5 C-6.86424412 19.86063104 -7.13210879 18.78541889 -9.27734375 17.12109375 C-9.99019531 16.73050781 -10.70304687 16.33992188 -11.4375 15.9375 C-14.49398709 14.24561513 -15.48340303 13.52489546 -17.5 10.5 C-17.3442014 6.83873302 -16.93363604 5.01756559 -14.5625 2.1875 C-10.21895558 -1.36630907 -5.30619725 -1.06123945 0 0 Z " fill="#1E2D49" transform="translate(371.5,466.5)"/>
<path d="M0 0 C1.65 0 3.3 0 5 0 C8.10717291 6.0044017 10.75900082 12.09214652 13.25 18.375 C13.61351562 19.27605469 13.97703125 20.17710937 14.3515625 21.10546875 C14.69445312 21.96527344 15.03734375 22.82507813 15.390625 23.7109375 C15.70032227 24.48743652 16.01001953 25.26393555 16.32910156 26.06396484 C17 28 17 28 17 30 C15.68 30 14.36 30 13 30 C11.515 26.535 11.515 26.535 10 23 C5.05 22.67 0.1 22.34 -5 22 C-5.33 23.98 -5.66 25.96 -6 28 C-6.33 28.66 -6.66 29.32 -7 30 C-8.32 30 -9.64 30 -11 30 C-8.81763743 23.22682582 -6.36792454 16.577907 -3.8125 9.9375 C-3.44447266 8.97650391 -3.07644531 8.01550781 -2.69726562 7.02539062 C-1.79990328 4.68292528 -0.90078716 2.34114999 0 0 Z " fill="#22304C" transform="translate(466,274)"/>
<path d="M0 0 C-0.33 2.31 -0.66 4.62 -1 7 C-1.62648438 6.9278125 -2.25296875 6.855625 -2.8984375 6.78125 C-3.71570313 6.6884375 -4.53296875 6.595625 -5.375 6.5 C-6.18710937 6.4071875 -6.99921875 6.314375 -7.8359375 6.21875 C-9.96912825 5.96647649 -9.96912825 5.96647649 -12 6 C-12.05386629 8.12472576 -12.09273071 10.24983652 -12.125 12.375 C-12.14820313 13.55835938 -12.17140625 14.74171875 -12.1953125 15.9609375 C-12.32866229 19.11153817 -12.32866229 19.11153817 -10 21 C-7.78927023 21.24253813 -7.78927023 21.24253813 -5.375 21.125 C-4.55773437 21.10695313 -3.74046875 21.08890625 -2.8984375 21.0703125 C-1.95871094 21.03550781 -1.95871094 21.03550781 -1 21 C-1 22.98 -1 24.96 -1 27 C-4.69210448 28.84605224 -8.96151909 28.34397156 -13 28 C-16.462615 26.67389213 -17.64814304 25.48531994 -19.8125 22.5 C-21.91191229 16.31225851 -22.17603272 10.43917898 -19.3125 4.5 C-13.77998372 -1.48109868 -7.84471466 -2.61490489 0 0 Z " fill="#1E2D49" transform="translate(471,467)"/>
<path d="M0 0 C3.125 1.125 3.125 1.125 5 3 C5.8125 6.1875 5.8125 6.1875 6 9 C4.68 9 3.36 9 2 9 C1.87625 8.360625 1.7525 7.72125 1.625 7.0625 C1.41875 6.381875 1.2125 5.70125 1 5 C-1.64458379 3.67770811 -3.67761301 3.90322806 -6.625 3.9375 C-8.12933594 3.95103516 -8.12933594 3.95103516 -9.6640625 3.96484375 C-10.82035156 3.98224609 -10.82035156 3.98224609 -12 4 C-12.15637858 6.43214273 -12.15637858 6.43214273 -12 9 C-9.00457206 11.59603755 -5.6822067 12.40314231 -1.9375 13.4375 C1.99178387 14.57353736 4.72957599 15.3879618 7 19 C7.5625 21.9375 7.5625 21.9375 7 25 C2.09625144 30.80707066 2.09625144 30.80707066 -2.20703125 31.203125 C-10.86595961 31.35890782 -10.86595961 31.35890782 -15 28 C-17 26 -17 26 -17.125 23.375 C-17.08375 22.59125 -17.0425 21.8075 -17 21 C-16.01 21 -15.02 21 -14 21 C-13.443125 22.2065625 -13.443125 22.2065625 -12.875 23.4375 C-11.29521726 26.13409046 -11.29521726 26.13409046 -8.94921875 26.625 C-4.58156256 27.19686988 -1.88274307 27.27304093 2 25 C2 23.35 2 21.7 2 20 C1.05125 19.5875 0.1025 19.175 -0.875 18.75 C-1.50535156 18.47542969 -2.13570313 18.20085937 -2.78515625 17.91796875 C-4.38144488 17.25636764 -5.99638999 16.6391613 -7.62109375 16.05078125 C-8.50925781 15.72464844 -9.39742188 15.39851563 -10.3125 15.0625 C-11.15425781 14.76472656 -11.99601562 14.46695312 -12.86328125 14.16015625 C-15.43091921 12.76602741 -16.06414606 11.73395534 -17 9 C-16.78690314 6.08767619 -16.42355542 4.51563269 -14.5625 2.25 C-10.32825418 -1.13739665 -5.17139961 -0.4029662 0 0 Z " fill="#23324D" transform="translate(445,274)"/>
<path d="M0 0 C3.42224883 1.68110469 5.27413015 2.91119523 7.375 6.0625 C8 8 8 8 8 11 C6.68 11 5.36 11 4 11 C3.731875 10.21625 3.46375 9.4325 3.1875 8.625 C2.15185568 5.71885077 2.15185568 5.71885077 -1 4 C-7.36835603 3.46634658 -7.36835603 3.46634658 -13 6 C-15.72799449 10.46130506 -15.54337991 14.92022114 -15 20 C-13.38727433 23.68623011 -12.369675 24.75355 -9 27 C-3.10361015 27.48430402 -3.10361015 27.48430402 2 25 C3.29231642 21.95800528 3.29231642 21.95800528 4 19 C5.32 19 6.64 19 8 19 C7.72603479 22.92683468 7.22390251 24.72768614 4.6875 27.8125 C0.17312399 31.4869921 -4.2674435 31.57546899 -10 31 C-14.16792792 29.71756064 -16.23270314 28.14532148 -18.375 24.4375 C-20.45540424 19.65344806 -20.95011545 15.13224758 -20 10 C-18.41449067 6.23989883 -16.63123615 3.06203885 -13.1640625 0.8046875 C-8.90149991 -0.7803087 -4.46485525 -0.5298381 0 0 Z " fill="#25334F" transform="translate(505,274)"/>
<path d="M0 0 C2.31 0 4.62 0 7 0 C7 7.26 7 14.52 7 22 C9.97 22 12.94 22 16 22 C16 23.98 16 25.96 16 28 C10.72 28 5.44 28 0 28 C0 18.76 0 9.52 0 0 Z " fill="#22304C" transform="translate(405,467)"/>
<path d="M0 0 C2.64 0 5.28 0 8 0 C8 9.57 8 19.14 8 29 C5.36 29 2.72 29 0 29 C0 19.43 0 9.86 0 0 Z " fill="#38455E" transform="translate(474,466)"/>
<path d="M0 0 C58.41 0 116.82 0 177 0 C177 0.33 177 0.66 177 1 C127.17 1.33 77.34 1.66 26 2 C29.63 2.66 33.26 3.32 37 4 C37 4.33 37 4.66 37 5 C35.56260487 5.02712066 34.12506137 5.04645067 32.6875 5.0625 C31.48673828 5.07990234 31.48673828 5.07990234 30.26171875 5.09765625 C28 5 28 5 25 4 C23.08330242 3.78391654 21.16155357 3.6112858 19.23828125 3.46484375 C18.12001953 3.37783203 17.00175781 3.29082031 15.84960938 3.20117188 C14.09874023 3.0706543 14.09874023 3.0706543 12.3125 2.9375 C11.13365234 2.84662109 9.95480469 2.75574219 8.74023438 2.66210938 C5.82706468 2.4380194 2.9136711 2.21745704 0 2 C0 1.34 0 0.68 0 0 Z " fill="#FCE3D4" transform="translate(119,455)"/>
<path d="M0 0 C3.0469872 -0.38897709 5.07732974 -0.63528116 7.66796875 1.1484375 C9.56524387 3.78570556 9.39865282 5.78321655 9.375 9 C9.38273437 10.051875 9.39046875 11.10375 9.3984375 12.1875 C9 15 9 15 7.66796875 16.8828125 C6 18 6 18 2.9375 17.875 C0 17 0 17 -2 14 C-2.265625 11.40625 -2.265625 11.40625 -2.25 8.5 C-2.25515625 7.5409375 -2.2603125 6.581875 -2.265625 5.59375 C-2 3 -2 3 0 0 Z " fill="#F5F5F6" transform="translate(495,472)"/>
<path d="M0 0 C1.670625 0.4021875 1.670625 0.4021875 3.375 0.8125 C4.72781371 3.51812743 4.58109362 5.73143655 4.625 8.75 C4.66367187 10.34134766 4.66367187 10.34134766 4.703125 11.96484375 C4.375 14.8125 4.375 14.8125 3.05078125 16.69921875 C1.375 17.8125 1.375 17.8125 -1.6875 17.6875 C-4.625 16.8125 -4.625 16.8125 -6.625 13.8125 C-6.92578125 11.21875 -6.92578125 11.21875 -6.9375 8.3125 C-6.95425781 7.3534375 -6.97101563 6.394375 -6.98828125 5.40625 C-6.625 2.8125 -6.625 2.8125 -5.33203125 0.95703125 C-3.625 -0.1875 -3.625 -0.1875 0 0 Z " fill="#F5F6F7" transform="translate(389.625,472.1875)"/>
<path d="M0 0 C0.66 0 1.32 0 2 0 C3.65 4.62 5.3 9.24 7 14 C3.04 14 -0.92 14 -5 14 C-1.85714286 4.42857143 -1.85714286 4.42857143 0 0 Z " fill="#F4F5F6" transform="translate(468,279)"/>
<path d="M0 0 C1.98890337 2.98335506 2.37528223 4.25404273 2.8515625 7.68359375 C2.98071045 8.60640137 3.1098584 9.52920898 3.24291992 10.47998047 C3.36900635 11.45596191 3.49509277 12.43194336 3.625 13.4375 C3.75688721 14.42637207 3.88877441 15.41524414 4.0246582 16.43408203 C4.90077592 23.33768573 5.39653484 30.03861055 5 37 C5.66 37 6.32 37 7 37 C7 41.29 7 45.58 7 50 C6.67 50 6.34 50 6 50 C6 47.03 6 44.06 6 41 C5.34 41 4.68 41 4 41 C3.94465088 40.40461426 3.88930176 39.80922852 3.83227539 39.19580078 C3.57981135 36.50512785 3.32123184 33.81507714 3.0625 31.125 C2.97548828 30.18785156 2.88847656 29.25070312 2.79882812 28.28515625 C2.66831055 26.94130859 2.66831055 26.94130859 2.53515625 25.5703125 C2.456604 24.74289551 2.37805176 23.91547852 2.29711914 23.06298828 C2.10222637 20.9418334 2.10222637 20.9418334 1 19 C0.84932786 17.5534758 0.75138964 16.1012066 0.68359375 14.6484375 C0.62075195 13.37226562 0.62075195 13.37226562 0.55664062 12.0703125 C0.51732422 11.18085937 0.47800781 10.29140625 0.4375 9.375 C0.39431641 8.4778125 0.35113281 7.580625 0.30664062 6.65625 C0.20043139 4.43765717 0.09838806 2.2189512 0 0 Z " fill="#F6B690" transform="translate(392,679)"/>
<path d="M0 0 C0.33 0 0.66 0 1 0 C1.13277344 1.13179688 1.26554688 2.26359375 1.40234375 3.4296875 C1.5805342 4.91148179 1.75893029 6.39325136 1.9375 7.875 C2.06801758 8.99455078 2.06801758 8.99455078 2.20117188 10.13671875 C2.63326063 14.1953231 2.63326063 14.1953231 4 18 C4.06996014 19.70702735 4.08440154 21.41668003 4.0625 23.125 C4.05347656 24.03507812 4.04445313 24.94515625 4.03515625 25.8828125 C4.01775391 26.93082031 4.01775391 26.93082031 4 28 C3.690625 27.360625 3.38125 26.72125 3.0625 26.0625 C2.1654837 24.06389179 2.1654837 24.06389179 1 23 C-0.15748647 15.38345326 -0.12068232 7.68344103 0 0 Z " fill="#F6B187" transform="translate(545,64)"/>
<path d="M0 0 C-6.43280144 3.82490896 -13.56745678 5 -21 5 C-21 4.34 -21 3.68 -21 3 C-19.989375 2.87625 -18.97875 2.7525 -17.9375 2.625 C-14.15612419 2.02478162 -10.66609757 1.08625113 -7 0 C-2.29850746 -1.14925373 -2.29850746 -1.14925373 0 0 Z " fill="#F6B58E" transform="translate(527,565)"/>
<path d="M0 0 C1 2 1 2 0.4765625 4.03125 C0.05503906 5.25328125 0.05503906 5.25328125 -0.375 6.5 C-1.84178046 11.05962977 -2.44571876 15.29411282 -2.69140625 20.06640625 C-2.79324219 20.70449219 -2.89507812 21.34257813 -3 22 C-3.66 22.33 -4.32 22.66 -5 23 C-4.67 17.39 -4.34 11.78 -4 6 C-3.34 6 -2.68 6 -2 6 C-1.855625 5.195625 -1.71125 4.39125 -1.5625 3.5625 C-1 1 -1 1 0 0 Z " fill="#F6B48C" transform="translate(403,16)"/>
<path d="M0 0 C0.33 0.66 0.66 1.32 1 2 C1.66 2 2.32 2 3 2 C3 2.99 3 3.98 3 5 C2.34 5 1.68 5 1 5 C0.773125 5.7425 0.54625 6.485 0.3125 7.25 C-1.24407532 10.51139591 -3.08518854 11.92894975 -6 14 C-4.9789841 11.80088884 -3.99617852 9.99541423 -2.4375 8.125 C-0.63615871 5.46214766 -0.35927759 3.16164275 0 0 Z " fill="#F5B085" transform="translate(207,531)"/>
<path d="M0 0 C4.29 0 8.58 0 13 0 C13.33 0.99 13.66 1.98 14 3 C9.33333333 2.33333333 4.66666667 1.66666667 0 1 C0 0.67 0 0.34 0 0 Z " fill="#F18848" transform="translate(138,456)"/>
<path d="M0 0 C2.64 0.33 5.28 0.66 8 1 C8 1.66 8 2.32 8 3 C8.99 3.33 9.98 3.66 11 4 C8.50907189 5.24546405 7.58919267 4.7767578 5 4 C5 3.34 5 2.68 5 2 C3.35 1.67 1.7 1.34 0 1 C0 0.67 0 0.34 0 0 Z " fill="#F6B791" transform="translate(539,208)"/>
<path d="M0 0 C-3.66291938 2.47785723 -6.6109185 3.48964169 -11 4 C-11 3.34 -11 2.68 -11 2 C-9.68 2 -8.36 2 -7 2 C-7 1.34 -7 0.68 -7 0 C-2.25 -1.125 -2.25 -1.125 0 0 Z " fill="#F7C09E" transform="translate(378,97)"/>
</svg>
